<?xml version="1.0" encoding="utf-8"?>
<!-- Generator: Adobe Illustrator 16.0.0, SVG Export Plug-In . SVG Version: 6.00 Build 0)  -->
<!DOCTYPE svg PUBLIC "-//W3C//DTD SVG 1.1//EN" "http://www.w3.org/Graphics/SVG/1.1/DTD/svg11.dtd">
<svg version="1.1" id="Capa_1" xmlns="http://www.w3.org/2000/svg" xmlns:xlink="http://www.w3.org/1999/xlink" x="0px" y="0px"
	 width="32px" height="32px" viewBox="0 0 24 24" enable-background="new 0 0 24 24" xml:space="preserve">
<g>
	<g>
		<g>
			<g>
				<path fill="#F9F9F9" d="M11.369,9.031c0.221,0.309,0.333,0.682,0.333,1.116c0,0.446-0.113,0.806-0.335,1.078
					c-0.126,0.151-0.308,0.291-0.551,0.415c0.369,0.137,0.647,0.351,0.835,0.646c0.188,0.297,0.281,0.651,0.281,1.071
					c0,0.435-0.107,0.822-0.322,1.166c-0.136,0.229-0.306,0.42-0.511,0.578c-0.23,0.179-0.504,0.299-0.816,0.366
					c-0.314,0.064-0.655,0.099-1.022,0.099H6V8.25h3.496C10.377,8.263,11.002,8.522,11.369,9.031z M7.443,9.522v1.611h1.758
					c0.313,0,0.567-0.061,0.765-0.181c0.194-0.122,0.293-0.336,0.293-0.643c0-0.342-0.129-0.565-0.388-0.676
					C9.648,9.559,9.362,9.522,9.016,9.522H7.443z M7.443,12.347v1.949h1.755c0.313,0,0.558-0.044,0.732-0.13
					c0.318-0.159,0.476-0.464,0.476-0.913c0-0.382-0.154-0.642-0.461-0.784c-0.171-0.079-0.412-0.12-0.722-0.122H7.443z"/>
				<path fill="#F9F9F9" d="M16.602,10.265c0.373,0.17,0.683,0.436,0.926,0.801c0.218,0.324,0.359,0.696,0.427,1.12
					c0.037,0.247,0.052,0.604,0.045,1.071h-3.896c0.021,0.545,0.209,0.925,0.562,1.144c0.213,0.136,0.471,0.203,0.771,0.203
					c0.317,0,0.578-0.082,0.774-0.248c0.11-0.09,0.205-0.213,0.289-0.373h1.428c-0.036,0.319-0.211,0.646-0.52,0.979
					c-0.479,0.522-1.149,0.788-2.013,0.788c-0.711,0-1.338-0.223-1.883-0.666c-0.543-0.443-0.813-1.165-0.813-2.166
					c0-0.937,0.243-1.656,0.735-2.156c0.49-0.5,1.129-0.751,1.912-0.751C15.811,10.011,16.229,10.098,16.602,10.265z M14.511,11.487
					c-0.198,0.207-0.321,0.485-0.372,0.839h2.408c-0.025-0.376-0.15-0.663-0.373-0.856c-0.223-0.194-0.498-0.292-0.828-0.292
					C14.986,11.179,14.708,11.283,14.511,11.487z"/>
			</g>
			<rect x="13.5" y="9" fill="#F9F9F9" width="3.75" height="0.75"/>
		</g>
	</g>
</g>
</svg>
