<?xml version="1.0" encoding="utf-8"?>
<!-- Generator: Adobe Illustrator 16.0.0, SVG Export Plug-In . SVG Version: 6.00 Build 0)  -->
<!DOCTYPE svg PUBLIC "-//W3C//DTD SVG 1.1//EN" "http://www.w3.org/Graphics/SVG/1.1/DTD/svg11.dtd">
<svg version="1.1" id="Layer_1" xmlns="http://www.w3.org/2000/svg" xmlns:xlink="http://www.w3.org/1999/xlink" x="0px" y="0px"
	 width="292px" height="266.8px" viewBox="0 0 292 266.8" enable-background="new 0 0 292 266.8" xml:space="preserve">
<g opacity="0.6" enable-background="new    ">
	<path fill="none" stroke="#3B4A57" stroke-miterlimit="10" d="M0.5,40.3c0-0.55,0.45-1,1-1h289c0.55,0,1,0.45,1,1v225
		c0,0.55-0.45,1-1,1H1.5c-0.55,0-1-0.45-1-1V40.3z"/>
</g>
<g opacity="0.6">
	<path fill="#3B4A57" d="M188.344,169.44l-27.1-86.572l-3.291-9.815c0,0-94.609,162.875-101.997,162.875l7.524-0.559
		c1.724,0,2.922-0.658,3.591-1.977l80.84-136.327c0.769-1.154,1.459-2.389,2.082-3.704c0.623-1.318,1.271-1.785,1.938-3.183
		c0.193,1.398,0.455,1.865,0.789,3.183c0.336,1.315,0.697,2.55,1.078,3.704l28.031,93.255
		C183.836,181.429,184.906,177.369,188.344,169.44z"/>
</g>
<path opacity="0.6" fill="#3B4A57" enable-background="new    " d="M185.904,186.85c-14.463,61.61-58.905,48.026-58.905,48.026
	s51.251,14.943,65.142-44.603c11.008-47.183,31.342-58.218,40.724-59.966C222.291,131.97,196.02,143.761,185.904,186.85z"/>
<rect x="7.5" y="45.3" opacity="0.4" fill="none" stroke="#3B4A57" stroke-miterlimit="10" stroke-dasharray="10" enable-background="new    " width="277" height="213"/>
<rect x="210.336" y="3.127" opacity="0.5" fill="none" stroke="#3B4A57" stroke-width="2" stroke-linecap="round" stroke-linejoin="round" stroke-miterlimit="10" enable-background="new    " width="8.852" height="28.562"/>
<line opacity="0.5" fill="none" stroke="#3B4A57" stroke-width="2" stroke-linecap="round" stroke-linejoin="round" stroke-miterlimit="10" enable-background="new    " x1="210.336" y1="7.751" x2="213" y2="7.751"/>
<line opacity="0.5" fill="none" stroke="#3B4A57" stroke-width="2" stroke-linecap="round" stroke-linejoin="round" stroke-miterlimit="10" enable-background="new    " x1="210.336" y1="11.751" x2="213" y2="11.751"/>
<line opacity="0.5" fill="none" stroke="#3B4A57" stroke-width="2" stroke-linecap="round" stroke-linejoin="round" stroke-miterlimit="10" enable-background="new    " x1="210.336" y1="15.751" x2="213" y2="15.751"/>
<line opacity="0.5" fill="none" stroke="#3B4A57" stroke-width="2" stroke-linecap="round" stroke-linejoin="round" stroke-miterlimit="10" enable-background="new    " x1="210.336" y1="19.751" x2="213" y2="19.751"/>
<line opacity="0.5" fill="none" stroke="#3B4A57" stroke-width="2" stroke-linecap="round" stroke-linejoin="round" stroke-miterlimit="10" enable-background="new    " x1="210.336" y1="23.751" x2="213" y2="23.751"/>
<line opacity="0.5" fill="none" stroke="#3B4A57" stroke-width="2" stroke-linecap="round" stroke-linejoin="round" stroke-miterlimit="10" enable-background="new    " x1="210.336" y1="27.751" x2="213" y2="27.751"/>
<polygon opacity="0.5" fill="none" stroke="#3B4A57" stroke-width="2" stroke-linecap="round" stroke-linejoin="round" stroke-miterlimit="10" enable-background="new    " points="
	77,31 69,31 69,8.563 73,1 77,8.563 "/>
<polyline opacity="0.5" fill="none" stroke="#3B4A57" stroke-width="2" stroke-linecap="round" stroke-linejoin="round" stroke-miterlimit="10" enable-background="new    " points="
	77,8.563 73,9.81 69,8.563 "/>
<line opacity="0.5" fill="none" stroke="#3B4A57" stroke-width="2" stroke-linecap="round" stroke-linejoin="round" stroke-miterlimit="10" enable-background="new    " x1="69" y1="26.513" x2="77" y2="26.513"/>
<path opacity="0.5" fill="none" stroke="#3B4A57" stroke-width="2" stroke-linecap="round" stroke-linejoin="round" stroke-miterlimit="10" enable-background="new    " d="
	M147.361,6.201c3.846,3.854,3.846,10.102,0,13.957c-3.843,3.853-10.075,3.853-13.92,0c-3.843-3.854-3.843-10.102,0-13.957
	C137.287,2.348,143.519,2.348,147.361,6.201z"/>
<line opacity="0.5" fill="none" stroke="#3B4A57" stroke-width="2" stroke-linecap="round" stroke-linejoin="round" stroke-miterlimit="10" enable-background="new    " x1="147.559" y1="20.285" x2="157.441" y2="30.192"/>
</svg>
