<?xml version="1.0" encoding="utf-8"?>
<!-- Generator: Adobe Illustrator 16.0.0, SVG Export Plug-In . SVG Version: 6.00 Build 0)  -->
<!DOCTYPE svg PUBLIC "-//W3C//DTD SVG 1.1//EN" "http://www.w3.org/Graphics/SVG/1.1/DTD/svg11.dtd">
<svg version="1.1" id="Layer_1" xmlns="http://www.w3.org/2000/svg" xmlns:xlink="http://www.w3.org/1999/xlink" x="0px" y="0px"
	 width="205px" height="205.89px" viewBox="0 0 205 205.89" enable-background="new 0 0 205 205.89" xml:space="preserve">
<line fill="none" stroke="#4DB2BC" stroke-miterlimit="10" x1="21.875" y1="87.015" x2="115.333" y2="7.224"/>
<line fill="none" stroke="#4DB2BC" stroke-miterlimit="10" x1="96.689" y1="7.53" x2="197.001" y2="89.223"/>
<line fill="none" stroke="#4DB2BC" stroke-miterlimit="10" x1="0" y1="83.39" x2="205" y2="83.39"/>
<polyline fill="none" stroke="#4DB2BC" stroke-miterlimit="10" points="21.125,79.39 108.191,154.187 148.25,168.015 "/>
<polyline fill="none" stroke="#4DB2BC" stroke-miterlimit="10" points="196.063,77.827 107.234,153.249 64.375,167.89 "/>
<line fill="none" stroke="#4DB2BC" stroke-miterlimit="10" x1="107.059" y1="153.349" x2="12.742" y2="127.222"/>
<line fill="none" stroke="#4DB2BC" stroke-miterlimit="10" x1="31" y1="123.556" x2="77.875" y2="170.39"/>
<line fill="none" stroke="#4DB2BC" stroke-miterlimit="10" x1="185.094" y1="123.556" x2="137.875" y2="167.89"/>
<line fill="none" stroke="#4DB2BC" stroke-miterlimit="10" x1="108.234" y1="153.249" x2="184.5" y2="132.224"/>
<polygon opacity="0.4" fill="none" stroke="#333333" stroke-miterlimit="10" points="72.57,165.09 33.051,205.39 27,205.39 
	25.941,201.196 43.081,135.626 25.95,83.535 39.334,16.631 57.334,3.664 102.584,16.64 110.002,16.378 154.334,0.557 173.559,13.8 
	189.512,83.39 172.271,135.595 186.834,197.056 186.531,205.39 181,205.39 140.566,165.362 107.059,153.349 "/>
</svg>
