<?xml version="1.0" encoding="utf-8"?>
<!-- Generator: Adobe Illustrator 16.0.0, SVG Export Plug-In . SVG Version: 6.00 Build 0)  -->
<!DOCTYPE svg PUBLIC "-//W3C//DTD SVG 1.1//EN" "http://www.w3.org/Graphics/SVG/1.1/DTD/svg11.dtd">
<svg version="1.1" id="Layer_1" xmlns="http://www.w3.org/2000/svg" xmlns:xlink="http://www.w3.org/1999/xlink" x="0px" y="0px"
	 width="149.74px" height="21.127px" viewBox="0 0 149.74 21.127" enable-background="new 0 0 149.74 21.127" xml:space="preserve">
<path fill="#f9f9f9" d="M75.183,14.766c0.092,0,0.186-0.036,0.258-0.107l5.434-5.435c0.142-0.141,0.087-0.203-0.086-0.446
	l-5.605,5.109l-5.543-5.109c-0.146,0.139-0.082,0.276-0.148,0.446l5.434,5.435C74.996,14.729,75.089,14.766,75.183,14.766"/>
<path fill="#f9f9f9" d="M86.625,10.554c-0.154,0-0.297,0.004-0.428,0.01c0.002,0.052,0.005,0.104,0.006,0.157
	c0.129,0.005,0.27,0.009,0.422,0.009h50.955c0.002-0.059,0.006-0.117,0.008-0.176H86.625z"/>
<path fill="#f9f9f9" d="M13.875,10.642c-0.154,0-0.297,0.004-0.428,0.01c0.002,0.052,0.005,0.104,0.006,0.157
	c0.129,0.005,0.27,0.009,0.422,0.009H64.83c0.002-0.059,0.006-0.117,0.008-0.176H13.875z"/>
</svg>
