<?xml version="1.0" encoding="utf-8"?>
<!-- Generator: Adobe Illustrator 16.0.0, SVG Export Plug-In . SVG Version: 6.00 Build 0)  -->
<!DOCTYPE svg PUBLIC "-//W3C//DTD SVG 1.1//EN" "http://www.w3.org/Graphics/SVG/1.1/DTD/svg11.dtd">
<svg version="1.1" id="Layer_1" xmlns="http://www.w3.org/2000/svg" xmlns:xlink="http://www.w3.org/1999/xlink" x="0px" y="0px"
	 width="60px" height="44px" viewBox="0 0 59.6 42.625" enable-background="new 0 0 59.6 42.625" xml:space="preserve">
<g>
	<g>
		<g>
			<g>
				
					<path fill="none" stroke="#231F20" stroke-width="1.6" stroke-linecap="round" stroke-linejoin="round" stroke-miterlimit="10" d="
					M58.8,7.459c0-3.678-2.982-6.66-6.66-6.66H7.46c-3.678,0-6.66,2.982-6.66,6.66v27.705c0,3.678,2.982,6.661,6.66,6.661h44.68
					c3.678,0,6.66-2.983,6.66-6.661V7.459z"/>
			</g>
			<g>
				<g>
					<g>
						
							<line fill="none" stroke="#231F20" stroke-width="1.6" stroke-linecap="round" stroke-linejoin="round" stroke-miterlimit="10" x1="0.8" y1="8.807" x2="58.757" y2="8.807"/>
					</g>
				</g>
				<g>
					
						<circle fill="none" stroke="#231F20" stroke-width="1.6" stroke-linecap="round" stroke-linejoin="round" stroke-miterlimit="10" cx="8.06" cy="4.955" r="0.677"/>
				</g>
				<g>
					
						<circle fill="none" stroke="#231F20" stroke-width="1.6" stroke-linecap="round" stroke-linejoin="round" stroke-miterlimit="10" cx="13.187" cy="4.955" r="0.677"/>
				</g>
				<g>
					
						<circle fill="none" stroke="#231F20" stroke-width="1.6" stroke-linecap="round" stroke-linejoin="round" stroke-miterlimit="10" cx="18.25" cy="4.955" r="0.677"/>
				</g>
			</g>
			<g>
				<g>
					
						<path fill="none" stroke="#231F20" stroke-width="1.6" stroke-linecap="round" stroke-linejoin="round" stroke-miterlimit="10" d="
						M46.173,36.314h-0.115c-0.277-0.844-0.617-1.658-1.015-2.441l0.085-0.08c1.475-1.477,3.576-5.732,1.449-7.86l-1.299-1.296
						c-2.127-2.129-6.266-0.146-7.856,1.447l-0.083,0.083c-0.781-0.396-1.597-0.734-2.441-1.011v-0.117
						c0-2.086-1.522-6.581-4.532-6.581h-1.834c-3.009,0-4.533,4.328-4.533,6.581v0.117c-0.844,0.276-1.658,0.615-2.439,1.011
						l-0.083-0.083c-1.24-1.24-5.731-3.577-7.858-1.447l-1.298,1.295c-2.128,2.129,0.092,6.502,1.448,7.861l0.085,0.081
						c-0.397,0.782-0.736,1.597-1.014,2.44h-0.115c-1.754,0-6.581,1.521-6.581,4.532v0.847c0.426,0.086,0.866,0.132,1.316,0.132
						h11.873c0-0.021-0.002-0.04-0.002-0.062c0-5.59,4.53-10.119,10.118-10.119c5.59,0,10.121,4.529,10.121,10.119
						c0,0.021-0.004,0.041-0.004,0.062H52.14c0.207,0,0.412-0.013,0.614-0.032v-0.946C52.754,37.836,48.426,36.314,46.173,36.314z"
						/>
				</g>
			</g>
		</g>
	</g>
</g>
</svg>
