<?xml version="1.0" encoding="utf-8"?>
<!-- Generator: Adobe Illustrator 16.0.0, SVG Export Plug-In . SVG Version: 6.00 Build 0)  -->
<!DOCTYPE svg PUBLIC "-//W3C//DTD SVG 1.1//EN" "http://www.w3.org/Graphics/SVG/1.1/DTD/svg11.dtd">
<svg version="1.1" id="Capa_1" xmlns="http://www.w3.org/2000/svg" xmlns:xlink="http://www.w3.org/1999/xlink" x="0px" y="0px"
	 width="32px" height="32px" viewBox="0 0 24 24" enable-background="new 0 0 24 24" xml:space="preserve">
<g>
	<g>
		<g>
			<path fill="#F9F9F9" d="M6.004,17.995h2.25v-9h-2.25V17.995z M15.004,8.995c-1.926,0.032-2.874,1.436-3,1.5v-1.5h-2.25v9h2.25
				v-5.25c0-0.192,0.475-1.734,2.25-1.5c0.954,0.062,1.469,1.323,1.5,1.5v5.25l2.242,0.01v-6.23
				C17.916,10.875,17.467,9.027,15.004,8.995z M7.129,5.995c-0.621,0-1.125,0.503-1.125,1.125s0.504,1.125,1.125,1.125
				S8.254,7.742,8.254,7.12S7.75,5.995,7.129,5.995z"/>
		</g>
	</g>
</g>
</svg>
