<?xml version="1.0" encoding="utf-8"?>
<!-- Generator: Adobe Illustrator 16.0.0, SVG Export Plug-In . SVG Version: 6.00 Build 0)  -->
<!DOCTYPE svg PUBLIC "-//W3C//DTD SVG 1.1//EN" "http://www.w3.org/Graphics/SVG/1.1/DTD/svg11.dtd">
<svg version="1.1" id="Layer_1" xmlns="http://www.w3.org/2000/svg" xmlns:xlink="http://www.w3.org/1999/xlink" x="0px" y="0px"
	 width="56px" height="56px" viewBox="0 0 200.276 197.23" enable-background="new 0 0 200.276 197.23"
	 xml:space="preserve">
<g>
	<g>
		<g>
			<path fill="#F4F4F4" d="M152.068,119.42c0.359-1.04,0.382-2.749,0.051-3.798l-29.748-94.196
				c-0.331-1.049-0.877-2.764-1.212-3.812l-5.373-16.782c-0.335-1.048-1.039-1.114-1.565-0.148L0.24,195.088
				c-0.556,0.949-0.111,1.726,0.989,1.726h6.5c1.1,0,2.649-0.271,3.443-0.602c0.794-0.331,3.009-2.914,3.57-3.86l89.17-150.361
				c0.562-0.946,1.49-2.488,2.063-3.427c0,0,0.596-0.975,1.294-2.451c0.7-1.479,1.315-2.768,1.315-2.768
				c0.474-0.993,1.008-0.917,1.188,0.168c0,0,0.186,1.121,0.561,2.6c0.377,1.476,0.616,2.247,0.616,2.247
				c0.326,1.051,0.852,2.772,1.169,3.826l30.982,103.076c0.317,1.053,0.794,1.042,1.062-0.025L152.068,119.42z"/>
		</g>
	</g>
</g>
<g>
	<path fill="#F4F4F4" d="M147.573,141.038c-16.233,69.148-64.199,54.487-64.199,54.487c-1.052-0.322-1.048-0.333,0.007-0.025
		c0,0,55.601,16.213,71.191-50.618c12.354-52.955,35.176-65.341,45.703-67.303C188.41,79.444,158.927,92.677,147.573,141.038z"/>
</g>
</svg>
