<?xml version="1.0" encoding="utf-8"?>
<!-- Generator: Adobe Illustrator 16.0.0, SVG Export Plug-In . SVG Version: 6.00 Build 0)  -->
<!DOCTYPE svg PUBLIC "-//W3C//DTD SVG 1.1//EN" "http://www.w3.org/Graphics/SVG/1.1/DTD/svg11.dtd">
<svg version="1.1" id="Layer_1" xmlns="http://www.w3.org/2000/svg" xmlns:xlink="http://www.w3.org/1999/xlink" x="0px" y="0px"
	 width="60px" height="60px" viewBox="0 0 222.1 218.566" enable-background="new 0 0 222.1 218.566" xml:space="preserve">
<g>
	<path fill="#F9F9FA" d="M168.346,157.171c2.173-6.19,7.018-22.31,9.404-28.421L143.592,20.592L137,0
		C137,0,19.167,215.097,9.25,215.5L0,218.566h20.997c1.935,0,3.28-0.741,4.03-2.218L126.756,41.344
		c0.861-1.295,1.639-2.681,2.337-4.157c0.7-1.479,1.426-3.003,2.177-4.573c0.217,1.569,0.512,3.094,0.887,4.573
		c0.377,1.476,0.781,2.862,1.209,4.157l34.743,116.763C168.159,157.805,168.232,157.494,168.346,157.171z"/>
</g>
<path fill="#F9F9FA" d="M169.396,142.111c-13.077,69.815-66.111,53.903-66.111,53.903s60.748,19.887,73.111-50.059
	c9.7-54.877,35.176-65.341,45.703-67.304C210.233,80.518,179.093,90.349,169.396,142.111z"/>
</svg>
