<?xml version="1.0" encoding="utf-8"?>
<!-- Generator: Adobe Illustrator 16.0.0, SVG Export Plug-In . SVG Version: 6.00 Build 0)  -->
<!DOCTYPE svg PUBLIC "-//W3C//DTD SVG 1.1//EN" "http://www.w3.org/Graphics/SVG/1.1/DTD/svg11.dtd">
<svg version="1.1" id="Layer_1" xmlns="http://www.w3.org/2000/svg" xmlns:xlink="http://www.w3.org/1999/xlink" x="0px" y="0px"
	 width="358.151px" height="99.187px" viewBox="0 0 358.151 99.187" enable-background="new 0 0 358.151 99.187"
	 xml:space="preserve">
<g>
	<path fill="#F9F9F9" d="M66.715,76.573c0-2.024,1.597-3.038,4.788-3.038c1.923,0,4.612,0.459,8.066,1.377
		c0.743-1.257,1.508-2.884,2.295-4.879c0.787-1.995,1.41-3.653,1.869-4.977c0.459-1.323,1.169-3.502,2.131-6.538l1.902-5.921
		c-2.011-0.652-3.597-1.607-4.754-2.867c-1.159-1.261-1.738-2.63-1.738-4.107c0-1.25,0.382-2.414,1.147-3.492
		c0.765-1.078,1.738-1.617,2.918-1.617c-0.569,0.777-0.853,2.113-0.853,4.01c0,3.105,1.246,5.324,3.738,6.661
		c0.961-2.882,1.879-5.355,2.754-7.42c0.875-2.064,1.891-4.065,3.05-6.001c1.158-1.936,2.437-3.397,3.836-4.388
		c1.399-0.989,2.886-1.484,4.459-1.484c1.633,0,3.113,0.514,4.439,1.542c1.325,1.028,1.988,2.699,1.988,5.012
		c0,1.567-0.33,3.201-0.988,4.899c-0.658,1.697-1.602,3.319-2.83,4.865c-1.229,1.546-2.887,2.809-4.971,3.788
		c-2.085,0.979-4.423,1.47-7.012,1.47h-1.053c-3.717,11.096-6.865,18.551-9.444,22.364c0.394,0.144,1.377,0.479,2.951,1.007
		l3.213,1.079c0.525,0.191,1.464,0.479,2.82,0.862c1.354,0.383,2.404,0.658,3.147,0.827c0.743,0.167,1.607,0.322,2.591,0.467
		c0.983,0.143,1.869,0.216,2.656,0.216c1.748,0,3.301-0.351,4.656-1.05c-1.312,3.673-3.607,5.509-6.886,5.509
		c-1.138,0-2.503-0.228-4.099-0.68c-1.596-0.455-2.864-0.877-3.804-1.265c-0.94-0.391-2.569-1.114-4.886-2.173
		c-2.318-1.06-3.738-1.719-4.263-1.983c-2.318,2.317-4.744,3.478-7.279,3.478c-1.967,0-3.552-0.618-4.754-1.851
		C67.317,79.042,66.715,77.807,66.715,76.573z M68.42,76.648c0,0.938,0.459,1.845,1.377,2.722c0.918,0.875,1.989,1.313,3.213,1.313
		c1.836,0,3.519-1.074,5.05-3.221c-3.236-1.481-5.728-2.223-7.477-2.223C69.142,75.24,68.42,75.709,68.42,76.648z M92.292,52.09
		c3.584-0.043,6.624-1.854,9.116-5.432c2.492-3.578,3.738-6.898,3.738-9.959c0-2.156-0.787-3.234-2.361-3.234
		c-0.962,0-1.902,0.453-2.82,1.359c-0.918,0.905-1.836,2.36-2.754,4.365c-0.918,2.004-1.705,3.891-2.361,5.658
		S93.341,49.029,92.292,52.09z"/>
	<path fill="#F9F9F9" d="M107.375,75.306c0-1.705,0.459-4,1.377-6.886s2.142-5.53,3.672-7.936c1.53-2.404,2.994-3.606,4.394-3.606
		c0.961,0,1.443,0.482,1.443,1.446c0,0.527-0.569,1.733-1.705,3.618c-1.138,1.886-2.274,4.024-3.41,6.414
		c-1.138,2.39-1.705,4.483-1.705,6.281c0,1.535,0.251,2.577,0.754,3.125c0.502,0.549,1.322,0.822,2.459,0.822
		c3.41,0,6.776-3.352,10.099-10.058l0.59,0.657c-1.225,3.659-3.028,6.512-5.41,8.559c-2.384,2.048-4.886,3.071-7.509,3.071
		c-1.618,0-2.864-0.515-3.738-1.541C107.812,78.246,107.375,76.924,107.375,75.306z M117.606,48.614c0-0.874,0.524-1.661,1.574-2.36
		s2.12-1.05,3.213-1.05c1.443,0,2.164,0.656,2.164,1.968c0,0.875-0.449,1.694-1.344,2.459c-0.896,0.766-1.869,1.147-2.918,1.147
		C118.501,50.778,117.606,50.058,117.606,48.614z"/>
	<path fill="#F9F9F9" d="M122.196,93.727c0-0.878,0.164-1.712,0.492-2.502c0.328-0.791,0.885-1.56,1.672-2.305
		c0.787-0.747,1.476-1.384,2.066-1.91s1.541-1.142,2.853-1.845l2.754-1.515c0.525-0.307,1.508-0.813,2.951-1.514
		c1.224-3.098,2.338-6.647,3.345-10.65c-3.892,5.477-7.455,8.213-10.69,8.213c-1.531,0-2.732-0.561-3.607-1.679
		c-0.874-1.12-1.312-2.61-1.312-4.471c0-2.921,0.951-5.743,2.853-8.466c1.902-2.722,4.186-4.857,6.853-6.407
		c2.667-1.549,5.203-2.324,7.607-2.324c2.361,0,3.542,0.7,3.542,2.099c0,0.707-0.263,1.15-0.787,1.326
		c-0.481-0.665-1.356-0.998-2.623-0.998c-3.236,0-6.242,1.752-9.018,5.257c-2.777,3.505-4.165,6.786-4.165,9.847
		c0,2.173,0.765,3.259,2.295,3.259c1.181,0,2.656-0.819,4.427-2.461s3.53-3.748,5.279-6.32l0.787-3.527
		c0.48-2.261,1.595-3.393,3.344-3.393c0.394,0,0.853,0.066,1.377,0.2c0,1.178-0.481,3.544-1.443,7.099
		c-0.962,3.556-2.164,7.165-3.607,10.829c2.273-1.079,4.383-2.579,6.329-4.5c1.945-1.921,3.399-4.068,4.361-6.442l0.853,0.666
		c-0.918,2.637-2.569,5.035-4.952,7.195c-2.383,2.16-4.82,3.823-7.312,4.99c-4.417,10.663-8.671,15.994-12.764,15.994
		c-1.038,0-1.924-0.313-2.66-0.937C122.564,95.91,122.196,94.975,122.196,93.727z M124.229,93.135c0,0.701,0.139,1.261,0.416,1.679
		c0.278,0.416,0.652,0.625,1.121,0.625c1.005,0,2.263-0.954,3.771-2.863c1.508-1.911,3.071-4.798,4.689-8.661
		c-3.192,1.624-5.656,3.139-7.392,4.545C125.097,89.862,124.229,91.421,124.229,93.135z"/>
	<path fill="#F9F9F9" d="M149.412,74.781c0-4.022,1.224-9.465,3.672-16.33c2.448-6.863,5.257-12.94,8.427-18.231
		c3.169-5.289,5.673-7.935,7.509-7.935c0.699,0,1.235,0.426,1.607,1.278c0.371,0.853,0.557,1.804,0.557,2.853
		c0,2.056-0.7,4.745-2.098,8.066c-1.4,3.323-3.302,6.603-5.706,9.838c-2.405,3.235-4.832,5.597-7.28,7.082
		c-1.618,3.804-2.426,8.11-2.426,12.92c0,0.699,0.043,1.442,0.131,2.229c3.891-11.323,8.329-16.985,13.313-16.985
		c1.64,0,2.869,0.58,3.689,1.738s1.229,2.547,1.229,4.164c0,1.442-0.459,3.389-1.377,5.837s-1.377,4.175-1.377,5.181
		c0,1.662,0.653,2.492,1.962,2.492c1.486,0,3.235-1.038,5.247-3.115c2.01-2.076,3.673-4.535,4.984-7.378l0.853,0.787
		c-1.443,3.323-3.291,6.056-5.542,8.197c-2.252,2.142-4.6,3.214-7.044,3.214c-1.443,0-2.558-0.384-3.345-1.147
		c-0.787-0.765-1.181-1.76-1.181-2.984c0-0.874,0.338-2.47,1.017-4.787c0.677-2.317,1.017-4.022,1.017-5.115
		c0-2.099-0.831-3.148-2.492-3.148c-1.443,0-2.831,0.94-4.164,2.82c-1.334,1.88-2.405,3.957-3.214,6.23
		c-0.809,2.273-1.684,4.351-2.623,6.229c-0.94,1.88-1.826,2.82-2.656,2.82c-0.787,0-1.433-0.679-1.935-2.033
		C149.663,78.214,149.412,76.617,149.412,74.781z M156.953,58.845c2.798-2.229,5.498-5.76,8.1-10.591
		c2.601-4.831,3.902-8.208,3.902-10.133c0-0.349-0.088-0.524-0.262-0.524c-0.482,0-1.433,0.995-2.853,2.984
		c-1.421,1.989-3.006,4.711-4.754,8.164C159.336,52.2,157.958,55.566,156.953,58.845z"/>
	<path fill="#F9F9F9" d="M179.973,75.634c0-3.76,1.268-9.027,3.803-15.805c-1.049-0.175-1.836-0.35-2.36-0.525v-1.18
		c1.573,0.175,2.534,0.262,2.886,0.262c1.923-4.984,3.988-9.301,6.197-12.952c2.207-3.649,3.945-5.476,5.213-5.476
		c0.35,0,0.666,0.131,0.951,0.394c0.284,0.262,0.426,0.612,0.426,1.049c0,0.656-0.426,1.793-1.278,3.41
		c-0.853,1.618-2.056,3.782-3.606,6.492c-1.553,2.712-2.832,5.139-3.837,7.28h2.427c3.629,0,6.755-0.132,9.378-0.394v1.18
		c-4.635,0.525-8.373,0.787-11.214,0.787c-0.132,0-0.241,0-0.328,0h-0.984c-2.404,5.466-3.606,10.209-3.606,14.231
		c0,1.968,0.284,3.345,0.853,4.132c0.568,0.786,1.508,1.18,2.82,1.18c2.229,0,4.437-0.993,6.623-2.983
		c2.186-1.989,4.132-4.732,5.837-8.23l0.853,0.656c-1.618,3.803-3.804,6.918-6.559,9.345c-2.754,2.427-5.64,3.64-8.656,3.64
		C181.917,82.126,179.973,79.962,179.973,75.634z"/>
	<path fill="#F9F9F9" d="M200.563,43.564c0-2.797,1.224-5.443,3.673-7.935c2.447-2.492,5.224-3.738,8.328-3.738
		c2.666,0,4.678,1.039,6.033,3.115s2.033,4.93,2.033,8.558c0,3.63-0.711,7.969-2.131,13.018c-1.422,5.05-2.832,9.75-4.23,14.101
		c-1.399,4.351-2.099,7.531-2.099,9.542c0,1.705,0.656,2.558,1.968,2.558c2.055,0,4.579-1.859,7.574-5.574
		c2.994-3.716,5.596-7.913,7.805-12.592c2.207-4.678,3.508-8.481,3.902-11.411c1.311,0,2.295,0.339,2.95,1.017
		c0.656,0.678,0.983,1.41,0.983,2.197c0,0.743-0.393,2.055-1.18,3.935l-2.492,5.902c-0.918,2.056-1.749,4.384-2.492,6.984
		c-0.744,2.602-1.115,4.864-1.115,6.787c0,0.918,0.12,1.606,0.361,2.066c0.24,0.459,0.731,0.688,1.475,0.688
		c2.404,0,5.454-2.253,9.149-6.755c3.694-4.503,6.94-9.925,9.738-16.265c2.798-6.338,4.197-11.781,4.197-16.329
		c0-3.804-1.202-6.076-3.606-6.82c1.18-2.011,2.449-3.017,3.807-3.017c1.065,0,2.008,0.634,2.83,1.901
		c0.822,1.269,1.232,3.061,1.232,5.378c0,4.679-1.611,10.516-4.831,17.51c-3.222,6.996-7.132,13.149-11.733,18.461
		c-4.601,5.313-8.633,7.968-12.094,7.968c-1.443,0-2.744-0.426-3.902-1.278c-1.159-0.853-1.738-2.065-1.738-3.64
		c0-1.181,0.438-3.148,1.313-5.902c-5.115,7.214-9.641,10.82-13.576,10.82c-1.355,0-2.635-0.393-3.836-1.18
		c-1.203-0.787-1.804-2.143-1.804-4.066c0-1.661,0.688-4.656,2.065-8.984c1.378-4.328,2.755-9.083,4.133-14.264
		c1.377-5.181,2.064-9.65,2.064-13.411c0-1.224-0.011-2.175-0.032-2.854c-0.022-0.677-0.099-1.485-0.229-2.426
		c-0.131-0.939-0.328-1.65-0.59-2.132c-0.263-0.48-0.656-0.896-1.181-1.246c-0.524-0.35-1.159-0.524-1.901-0.524
		c-2.188,0-3.859,1.181-5.018,3.541c-1.158,2.361-1.738,4.854-1.738,7.477c0,1.442,0.197,2.623,0.591,3.541
		c-1.618,0-2.799-0.437-3.542-1.312C200.934,46.101,200.563,44.965,200.563,43.564z"/>
	<path fill="#F9F9F9" d="M254.667,76.748c0-2.587,0.905-5.46,2.714-8.618s4.15-5.878,7.027-8.159c2.878-2.28,5.667-3.421,8.37-3.421
		c1.721,0,3.154,0.465,4.302,1.396c1.146,0.931,1.721,2.127,1.721,3.589c0,1.88-1.072,2.819-3.213,2.819
		c0.218-0.787,0.327-1.551,0.327-2.295c0-2.448-1.089-3.673-3.266-3.673c-1.916,0-3.952,1.104-6.108,3.312
		c-2.156,2.209-3.92,4.767-5.291,7.674c-1.373,2.907-2.059,5.433-2.059,7.574c0,1.705,0.591,2.558,1.771,2.558
		c0.785,0,1.699-0.372,2.747-1.115c1.048-0.742,2.007-1.573,2.88-2.492c0.871-0.918,1.907-2.152,3.106-3.705
		c1.198-1.551,2.082-2.743,2.649-3.574l2.355-3.41c1.771,0.307,2.656,0.853,2.656,1.64c0,0.351-0.645,1.662-1.934,3.935
		c-1.291,2.274-1.936,4.001-1.936,5.182c0,0.743,0.191,1.409,0.573,2c0.381,0.59,0.954,0.885,1.718,0.885
		c1.268,0,2.863-0.906,4.788-2.722c1.923-1.813,3.825-4.36,5.705-7.64l0.656,0.656c-1.355,3.476-3.27,6.32-5.738,8.535
		C278.72,79.893,276.287,81,273.894,81c-1.513,0-2.669-0.44-3.469-1.322c-0.8-0.881-1.198-1.944-1.198-3.191
		c0-0.524,0.064-1.158,0.196-1.902c-1.968,2.578-3.728,4.469-5.279,5.672c-1.553,1.203-3.094,1.805-4.624,1.805
		c-1.442,0-2.613-0.449-3.508-1.345C255.115,79.819,254.667,78.498,254.667,76.748z"/>
	<path fill="#F9F9F9" d="M285.62,74.453c0-0.83,0.131-3.694,0.394-8.591c0.043-0.918,0.108-1.552,0.196-1.902
		c0.088-0.35,0.273-0.633,0.559-0.853c0.283-0.218,0.73-0.327,1.344-0.327c0.742,0,1.213,0.142,1.41,0.426
		c0.196,0.285,0.295,0.843,0.295,1.672c0,0.919-0.099,2.613-0.295,5.083c-0.197,2.471-0.295,4.296-0.295,5.476
		c0,2.449,0.502,3.673,1.508,3.673c1.443,0,3.191-1.476,5.246-4.427s3.912-6.263,5.574-9.936c0.184-4.939,1.231-7.41,3.146-7.41
		c0.702,0,1.25,0.273,1.644,0.819c0.393,0.547,0.59,1.104,0.59,1.673c0,0.393-0.176,0.929-0.526,1.606s-0.711,1.618-1.082,2.819
		c-0.371,1.203-0.557,2.656-0.557,4.361c0,3.323,1.026,4.984,3.083,4.984c1.879,0,3.606-1.617,5.18-4.853l0.854,0.655
		c-1.574,3.717-3.738,5.574-6.492,5.574c-3.163,0-5.04-2.12-5.633-6.361c-1.794,3.586-3.839,6.656-6.135,9.214
		c-2.298,2.559-4.431,3.837-6.398,3.837C286.822,81.667,285.62,79.262,285.62,74.453z"/>
	<path fill="#F9F9F9" d="M310.737,74.388c0-4.022,1.836-8.175,5.512-12.46c3.673-4.285,7.391-6.428,11.152-6.428
		c2.706,0,4.06,1.335,4.06,4.001c0,3.191-1.698,6.012-5.095,8.46c-3.396,2.449-7.098,3.869-11.104,4.263
		c-0.175,0.744-0.261,1.53-0.261,2.36c0,3.673,1.718,5.509,5.156,5.509c2.666,0,5.354-1.114,8.066-3.345
		c2.71-2.229,4.918-4.983,6.623-8.263l0.787,0.59c-1.75,3.872-4.176,6.982-7.279,9.331c-3.105,2.348-6.294,3.523-9.568,3.523
		c-2.596,0-4.585-0.705-5.971-2.113C311.431,78.408,310.737,76.599,310.737,74.388z M315.587,70.978
		c3.046-1.093,5.973-2.732,8.779-4.919c2.806-2.186,4.209-4.524,4.209-7.017c0-1.006-0.457-1.509-1.371-1.509
		c-2.045,0-4.264,1.433-6.656,4.296C318.154,64.693,316.501,67.742,315.587,70.978z"/>
	<path fill="#F9F9F9" d="M332.183,73.797c0-1.18,0.197-2.174,0.592-2.983c0.396-0.809,0.837-1.354,1.324-1.64
		c0.488-0.284,1-0.535,1.535-0.754c0.534-0.219,0.866-0.394,0.996-0.524c2.775-3.061,4.921-6.23,6.438-9.51v-0.787
		c0-1.485,0.251-2.601,0.755-3.345c0.502-0.742,1.104-1.114,1.803-1.114s1.049,0.285,1.049,0.853c0,0.088-0.064,0.438-0.196,1.049
		c-0.131,0.613-0.196,1.225-0.196,1.837c0,1.312,0.567,3.737,1.705,7.279c1.137,3.541,1.705,6.384,1.705,8.525
		c0,1.181-0.131,2.252-0.395,3.213c3.236-0.567,5.99-3.038,8.264-7.41l0.59,0.656c-1.53,4.503-4.59,7.104-9.181,7.804
		c-1.353,3.628-4.144,5.443-8.373,5.443c-2.918,0-5.05-0.853-6.396-2.558C332.855,78.126,332.183,76.115,332.183,73.797z
		 M335.396,73.797c0,1.662,0.488,3.138,1.463,4.427c0.977,1.289,2.266,1.935,3.869,1.935c2,0,3.371-1.07,4.111-3.213
		c-1.738-0.35-3.322-1.038-4.756-2.065s-2.52-2.153-3.257-3.378C335.872,71.546,335.396,72.312,335.396,73.797z M337.087,69.469
		c1.605,3.454,4.3,5.598,8.08,6.427c0.174-1.136,0.262-2.164,0.262-3.082c0-1.224-0.109-2.514-0.327-3.869
		c-0.22-1.354-0.524-2.853-0.919-4.492c-0.393-1.64-0.655-2.809-0.786-3.509C341.185,64.616,339.08,67.459,337.087,69.469z"/>
</g>
<path opacity="0.8" fill="#F9F9F9" d="M25.194,57.901C13.08,49.694,5.15,33.888,10.922,20.438c1.923,4.811,2.203,6.709,4.338,11.453
	c2.208,4.904,4.989,10.797,8.239,14.297c12.47,13.43,37.814,18.5,29.605,32.921c0.667-6.21-5.425-9.089-10.884-12.419
	C36.763,63.362,30.488,61.487,25.194,57.901z"/>
<path opacity="0.8" fill="#F9F9F9" d="M45.85,88.499c-3.812,3.063-8.658,4.188-11.828,7.902c0,0-1.292,2.391-2.813,2.602
	c0.229-3.252,0.119-8.689,0-16.793c4.262-0.076,7.128,1.348,10.604-0.881c2.878-1.846,4.717-5.729,5.687-10.465
	c0.074-0.363,7.305,4.873,4.423,10.346C50.475,83.963,48.536,86.338,45.85,88.499z"/>
<path opacity="0.8" fill="#F9F9F9" d="M30.522,99.187c-2.333-4.447-8.467-8.322-12.202-11.68
	c-4.204-3.779-6.543-6.113-10.006-11.279c-3.183-4.748-4.5-8.834-6.167-15c-1.471-5.44-3.407-14.81-1.031-20.167
	C0,46.727,8.131,63.831,12.063,68.245c8.167,9.166,13.024,11.956,18.195,13.827l0.139,7.704L30.522,99.187z"/>
<path opacity="0.8" fill="#F9F9F9" d="M15.655,81.095c-0.033-0.077-0.066-0.154-0.102-0.234"/>
<path opacity="0.8" fill="#F9F9F9" d="M28.36,30.206C20.692,22.797,16.073,10.268,19.214,0c2.706,6.718,4.573,14.765,8.192,20.101
	c7.496,11.051,31.687,26.73,25.059,36.842c0.769-4.486-4.53-10.857-8.347-13.529C40.3,40.745,32.047,33.768,28.36,30.206z"/>
</svg>
