<?xml version="1.0" encoding="utf-8"?>
<!-- Generator: Adobe Illustrator 16.0.0, SVG Export Plug-In . SVG Version: 6.00 Build 0)  -->
<!DOCTYPE svg PUBLIC "-//W3C//DTD SVG 1.1//EN" "http://www.w3.org/Graphics/SVG/1.1/DTD/svg11.dtd">
<svg version="1.1" id="Layer_1" xmlns="http://www.w3.org/2000/svg" xmlns:xlink="http://www.w3.org/1999/xlink" x="0px" y="0px"
	 width="56px" height="56px" viewBox="0 0 198.547 183.494" enable-background="new 0 0 198.547 183.494"
	 xml:space="preserve">
<g>
	<path fill="#3B4A57" d="M148.583,108.179l-30.416-97.163L114.473,0C114.473,0,8.292,182.8,0,182.799l8.444-0.625
		c1.935,0,3.28-0.74,4.03-2.219l90.729-153.004c0.861-1.295,1.639-2.681,2.337-4.157c0.7-1.479,1.426-2.003,2.177-3.573
		c0.217,1.569,0.512,2.094,0.887,3.573c0.377,1.476,0.781,2.862,1.209,4.157l31.461,104.665
		C143.524,121.635,144.725,117.076,148.583,108.179z"/>
</g>
<path fill="#3B4A57" d="M145.844,127.719c-16.233,69.148-66.111,53.902-66.111,53.902s57.521,16.771,73.111-50.059
	c12.354-52.956,35.176-65.341,45.703-67.303C186.681,66.125,157.198,79.357,145.844,127.719z"/>
</svg>
