<?xml version="1.0" encoding="utf-8"?>
<!-- Generator: Adobe Illustrator 16.0.0, SVG Export Plug-In . SVG Version: 6.00 Build 0)  -->
<!DOCTYPE svg PUBLIC "-//W3C//DTD SVG 1.1//EN" "http://www.w3.org/Graphics/SVG/1.1/DTD/svg11.dtd">
<svg version="1.1" id="Layer_1" xmlns="http://www.w3.org/2000/svg" xmlns:xlink="http://www.w3.org/1999/xlink" x="0px" y="0px"
	 width="54.71px" height="99.187px" viewBox="0 0 54.71 99.187" enable-background="new 0 0 54.71 99.187" xml:space="preserve">
<path opacity="0.8" fill="#F9F9F9" d="M25.194,57.901C13.08,49.694,5.15,33.888,10.922,20.438c1.923,4.811,2.203,6.709,4.338,11.453
	c2.208,4.904,4.989,10.797,8.239,14.297c12.471,13.43,37.814,18.5,29.605,32.921c0.666-6.21-5.426-9.089-10.884-12.419
	C36.764,63.362,30.488,61.487,25.194,57.901z"/>
<path opacity="0.8" fill="#F9F9F9" d="M45.85,88.499c-3.812,3.063-8.658,4.188-11.828,7.902c0,0-1.291,2.391-2.813,2.602
	c0.229-3.252,0.119-8.689,0-16.793c4.262-0.076,7.129,1.348,10.604-0.881c2.878-1.846,4.718-5.729,5.687-10.465
	c0.074-0.363,7.306,4.873,4.424,10.346C50.475,83.963,48.536,86.338,45.85,88.499z"/>
<path opacity="0.8" fill="#F9F9F9" d="M30.522,99.187c-2.333-4.447-8.467-8.322-12.202-11.68
	c-4.204-3.779-6.543-6.113-10.006-11.279c-3.183-4.748-4.5-8.834-6.167-15c-1.471-5.439-3.407-14.81-1.031-20.167
	C0,46.727,8.131,63.831,12.063,68.245c8.167,9.166,13.024,11.956,18.195,13.827l0.139,7.704L30.522,99.187z"/>
<path opacity="0.8" fill="#F9F9F9" d="M15.655,81.095c-0.033-0.077-0.066-0.154-0.102-0.234"/>
<path opacity="0.8" fill="#F9F9F9" d="M28.36,30.206C20.692,22.797,16.073,10.268,19.214,0c2.706,6.718,4.573,14.765,8.192,20.101
	c7.496,11.051,31.687,26.73,25.059,36.842c0.769-4.486-4.53-10.857-8.348-13.529C40.301,40.745,32.047,33.768,28.36,30.206z"/>
</svg>
