<?xml version="1.0" encoding="utf-8"?>
<!-- Generator: Adobe Illustrator 16.0.0, SVG Export Plug-In . SVG Version: 6.00 Build 0)  -->
<!DOCTYPE svg PUBLIC "-//W3C//DTD SVG 1.1//EN" "http://www.w3.org/Graphics/SVG/1.1/DTD/svg11.dtd">
<svg version="1.1" id="Layer_1" xmlns="http://www.w3.org/2000/svg" xmlns:xlink="http://www.w3.org/1999/xlink" x="0px" y="0px"
	 width="56px" height="56px" viewBox="0 0 205.547 197.887" enable-background="new 0 0 205.547 197.887"
	 xml:space="preserve">
<g>
	<path fill="#F2F2F2" d="M157.993,118.602l-30.953-98.01L120.448,0C120.448,0,8.292,197.193,0,197.192l15.444-0.625
		c1.935,0,3.28-0.74,4.03-2.219l90.729-153.004c0.861-1.295,1.639-2.681,2.337-4.157c0.7-1.479,1.426-3.003,2.177-4.573
		c0.217,1.569,0.512,3.094,0.887,4.573c0.377,1.476,0.781,2.862,1.209,4.157l32.135,106.907
		C151.198,138.27,154.135,127.5,157.993,118.602z"/>
</g>
<path fill="#F2F2F2" d="M152.844,142.112c-16.233,69.148-66.111,53.902-66.111,53.902s57.521,16.771,73.111-50.059
	C172.198,93,195.02,80.614,205.547,78.652C193.681,80.518,164.198,93.75,152.844,142.112z"/>
</svg>
