<?xml version="1.0" encoding="utf-8"?>
<!-- Generator: Adobe Illustrator 16.0.0, SVG Export Plug-In . SVG Version: 6.00 Build 0)  -->
<!DOCTYPE svg PUBLIC "-//W3C//DTD SVG 1.1//EN" "http://www.w3.org/Graphics/SVG/1.1/DTD/svg11.dtd">
<svg version="1.1" id="Layer_1" xmlns="http://www.w3.org/2000/svg" xmlns:xlink="http://www.w3.org/1999/xlink" x="0px" y="0px"
	 width="333.165px" height="307.146px" viewBox="0 0 333.165 307.146" enable-background="new 0 0 333.165 307.146"
	 xml:space="preserve">
<polygon fill="#F9F9F9" fill-opacity="0.6" stroke="#F9F9F9" stroke-miterlimit="10" points="160.154,147.352 82.423,82.276 
	151.347,82.276 151.347,88.103 155.347,87.995 155.347,85.281 163.68,85.281 163.683,88.276 167.427,88.276 167.3,82.276 
	238.347,82.276 "/>
<polygon fill="#F9F9F9" fill-opacity="0.6" stroke="#F9F9F9" stroke-miterlimit="10" points="238.347,79.408 167.15,79.273 
	167.167,72.174 163.173,72.177 163.115,75.274 155.991,75.401 155.87,72.287 151.347,72.293 151.347,79.276 82.423,79.276 
	159.75,13.517 159.75,13.517 "/>
<g>
	<path fill="#F9F9F9" d="M82.423,75.676"/>
	<path fill="none" stroke="#333333" stroke-miterlimit="10" d="M82.423,75.676"/>
</g>
<path fill="#F9F9F9" stroke="#333333" stroke-miterlimit="10" d="M241.294,75.676"/>
<polygon fill="#F9F9F9" fill-opacity="0.6" stroke="#F9F9F9" stroke-miterlimit="10" points="155.814,13.1 81.089,76.943 
	92.142,16.104 112.714,0.55 "/>
<path fill="#F9F9F9" stroke="#FFFFFF" stroke-miterlimit="10" d="M97.921,130.408"/>
<path fill="#F9F9F9" stroke="#FFFFFF" stroke-miterlimit="10" d="M156.845,146.857"/>
<path fill="#F9F9F9" stroke="#FFFFFF" stroke-miterlimit="10" d="M126.251,158.499"/>
<path fill="#F9F9F9" stroke="#FFFFFF" stroke-miterlimit="10" d="M97.921,131.434"/>
<polygon fill="#F9F9F9" fill-opacity="0.6" stroke="#F9F9F9" stroke-miterlimit="10" points="156.681,148.284 97.921,131.434 
	82.752,86.262 "/>
<polygon fill="#F9F9F9" fill-opacity="0.6" stroke="#F9F9F9" stroke-miterlimit="10" points="126.383,160.526 100.222,135.303 
	155.146,150.796 "/>
<polygon fill="#F9F9F9" fill-opacity="0.6" stroke="#F9F9F9" stroke-miterlimit="10" points="78.788,198.083 97.921,136.776 
	124.097,162.401 85.897,202.276 80.315,202.276 "/>
<polygon fill="#F9F9F9" fill-opacity="0.6" stroke="#F9F9F9" stroke-miterlimit="10" points="164.013,148.284 222.772,131.434 
	237.94,86.262 "/>
<polygon fill="#F9F9F9" fill-opacity="0.6" stroke="#F9F9F9" stroke-miterlimit="10" points="193.311,160.526 220.472,135.303 
	164.548,150.796 "/>
<polygon fill="#F9F9F9" fill-opacity="0.6" stroke="#F9F9F9" stroke-miterlimit="10" points="240.905,198.083 222.772,136.776 
	195.597,162.401 233.796,202.276 239.378,202.276 "/>
<polygon fill="#F9F9F9" fill-opacity="0.6" stroke="#F9F9F9" stroke-miterlimit="10" points="163.847,12.776 239.681,76.943 
	228.628,16.104 208.056,0.55 "/>
<g>
	<path fill="#F9F9F9" d="M3.31,271.481H0v-32.33l1.824-3.743c3.52-7.036,11.355-11.96,19.84-11.96
		c5.794,0,10.306,2.341,14.236,6.341c3.931,3.999,5.895,8.861,5.895,14.586v27.106h-3.31v-27.106c0-4.76-1.672-8.896-5.017-12.416
		c-3.347-3.517-7.398-5.274-12.156-5.274c-4.759,0-8.948,1.758-12.571,5.274c-3.619,3.52-5.432,7.656-5.432,12.416V271.481z"/>
	<path fill="#F9F9F9" d="M109.974,265.221c-4.758-4.931-7.139-10.671-7.139-17.226c0-6.553,2.414-12.224,7.241-17.02
		c4.827-4.792,10.993-7.528,17.784-7.528c6.793,0,12.234,2.736,17.031,7.528c4.793,4.796,7.189,10.485,7.189,17.071
		s-2.346,12.33-7.036,17.228c-4.691,4.897-10.38,7.345-17.071,7.345h-0.929C120.424,272.62,114.731,270.152,109.974,265.221z
		 M148.77,248.254c0-5.829-2.087-10.88-6.259-15.156c-4.176-4.275-9.156-6.414-14.948-6.414c-5.795,0-10.814,2.157-15.055,6.468
		s-6.362,9.362-6.362,15.154s2.122,10.811,6.362,15.054c4.24,4.24,9.275,6.363,15.106,6.363c5.826,0,10.81-2.123,14.949-6.363
		C146.702,259.117,148.77,254.084,148.77,248.254z"/>
	<path fill="#F9F9F9" d="M316.473,227.925v26.691c0,4.209,1.396,7.69,4.19,10.448c2.792,2.761,6.188,4.141,10.189,4.141v2.896
		c-4.898,0-9.07-1.638-12.519-4.914c-3.449-3.274-5.173-7.464-5.173-12.57l0.352-48.758h3.312v18.829 M319.069,224.688l14.096,0.043
		l-0.352,3.194h-14.096"/>
</g>
<g>
	<path fill="#F9F9F9" d="M161.987,223.307h12.78c7.201,0,12.659,2.711,17.076,7.445c4.417,4.738,6.626,10.416,6.626,17.043
		c0,6.626-2.2,12.293-6.595,17.007c-4.394,4.723-10.216,7.078-17.459,7.078h-12.78L161.987,223.307z M174.861,226.708H164.85v41.985
		h10.104c6.26,0,11.239-1.73,15.247-6.063c4.011-4.327,6.145-8.771,6.145-14.834c0-6.067-2.415-10.445-6.425-14.822
		C185.913,228.598,181.12,226.708,174.861,226.708z"/>
</g>
<path fill="#F9F9F9" d="M262.972,271.481h-3.312v-32.33l1.824-3.743c3.52-7.036,11.355-11.96,19.84-11.96
	c5.794,0,10.306,2.341,14.236,6.341c3.931,3.999,5.895,8.861,5.895,14.586v27.106h-3.31v-27.106c0-4.76-1.672-8.896-5.017-12.416
	c-3.347-3.517-7.398-5.274-12.156-5.274c-4.759,0-8.95,1.758-12.57,5.274c-3.62,3.52-5.431,7.656-5.431,12.416V271.481z"/>
<g>
	<path fill="#F9F9F9" d="M31.585,294.125c-0.473-0.288-1.003-0.432-1.589-0.432c-0.587,0-1.087,0.183-1.5,0.548
		s-0.62,0.865-0.62,1.5v0.09c0,0.754,0.419,1.443,1.258,2.065c0.359,0.264,0.763,0.523,1.212,0.781s0.898,0.533,1.348,0.826
		c0.448,0.294,0.855,0.604,1.221,0.934c0.365,0.33,0.665,0.734,0.898,1.213s0.351,1.006,0.351,1.58v0.18
		c0,1.138-0.387,2.042-1.159,2.713c-0.772,0.67-1.728,1.005-2.864,1.005c-1.497,0-2.658-0.616-3.484-1.85v-0.97
		c0.311,0.683,0.769,1.236,1.374,1.661c0.604,0.426,1.355,0.638,2.254,0.638c0.897,0,1.676-0.287,2.335-0.862
		c0.658-0.574,0.987-1.341,0.987-2.299v-0.107c0-0.599-0.155-1.146-0.467-1.644s-0.7-0.904-1.167-1.222s-0.977-0.649-1.527-0.997
		c-0.551-0.347-1.06-0.67-1.526-0.97c-0.467-0.299-0.856-0.676-1.167-1.131c-0.312-0.455-0.468-0.952-0.468-1.491v-0.126
		c0-0.838,0.27-1.479,0.809-1.922c0.539-0.442,1.203-0.664,1.994-0.664c1.102,0,1.976,0.407,2.622,1.222v0.916
		C32.433,294.807,32.059,294.412,31.585,294.125z"/>
	<path fill="#F9F9F9" d="M42.551,293.406v0.521h-3.071v12.95h-0.593v-12.95h-3.107v-0.521H42.551z"/>
	<path fill="#F9F9F9" d="M46.115,305.008c-1.359-1.4-2.038-3.038-2.038-4.912s0.688-3.496,2.065-4.867s3.029-2.057,4.957-2.057
		s3.574,0.683,4.939,2.048c1.365,1.364,2.047,2.99,2.047,4.876s-0.676,3.526-2.029,4.921c-1.354,1.396-2.97,2.093-4.85,2.093h-0.27
		C49.082,307.11,47.475,306.41,46.115,305.008z M57.494,300.132c0-1.767-0.626-3.281-1.877-4.544
		c-1.252-1.264-2.761-1.896-4.526-1.896c-1.767,0-3.278,0.632-4.535,1.896c-1.258,1.263-1.886,2.777-1.886,4.544
		s0.628,3.284,1.886,4.553c1.257,1.27,2.766,1.904,4.526,1.904c1.76,0,3.269-0.635,4.525-1.904
		C56.865,303.417,57.494,301.899,57.494,300.132z"/>
	<path fill="#F9F9F9" d="M75.851,293.406v13.471h-0.593v-12.771l-6.358,13.021l-6.322-13.021v12.771h-0.539v-13.471H62.9
		l6.053,12.429l6.071-12.429H75.851z"/>
	<path fill="#F9F9F9" d="M86.249,293.083l6.735,13.794h-0.628l-2.551-5.137h-7.202l-2.515,5.137h-0.557L86.249,293.083z
		 M86.195,294.322l-3.358,6.896h6.753L86.195,294.322z"/>
	<path fill="#F9F9F9" d="M101.014,293.406v0.521h-3.071v12.95H97.35v-12.95h-3.107v-0.521H101.014z"/>
	<path fill="#F9F9F9" d="M104.578,305.008c-1.359-1.4-2.038-3.038-2.038-4.912s0.688-3.496,2.065-4.867s3.029-2.057,4.957-2.057
		s3.574,0.683,4.939,2.048c1.365,1.364,2.047,2.99,2.047,4.876s-0.676,3.526-2.029,4.921c-1.354,1.396-2.97,2.093-4.85,2.093h-0.27
		C107.545,307.11,105.938,306.41,104.578,305.008z M115.957,300.132c0-1.767-0.626-3.281-1.877-4.544
		c-1.252-1.264-2.761-1.896-4.526-1.896c-1.767,0-3.278,0.632-4.535,1.896c-1.258,1.263-1.886,2.777-1.886,4.544
		s0.628,3.284,1.886,4.553c1.257,1.27,2.766,1.904,4.526,1.904c1.76,0,3.269-0.635,4.525-1.904
		C115.328,303.417,115.957,301.899,115.957,300.132z"/>
	<path fill="#F9F9F9" d="M121.094,293.406v12.95h4.167v0.521h-4.76v-13.471H121.094z"/>
	<path fill="#F9F9F9" d="M128.287,305.008c-1.359-1.4-2.038-3.038-2.038-4.912s0.688-3.496,2.065-4.867s3.029-2.057,4.957-2.057
		s3.574,0.683,4.939,2.048c1.365,1.364,2.047,2.99,2.047,4.876s-0.676,3.526-2.029,4.921c-1.354,1.396-2.97,2.093-4.85,2.093h-0.27
		C131.254,307.11,129.646,306.41,128.287,305.008z M139.666,300.132c0-1.767-0.626-3.281-1.877-4.544
		c-1.252-1.264-2.761-1.896-4.526-1.896c-1.767,0-3.278,0.632-4.535,1.896c-1.258,1.263-1.886,2.777-1.886,4.544
		s0.628,3.284,1.886,4.553c1.257,1.27,2.766,1.904,4.526,1.904c1.76,0,3.269-0.635,4.525-1.904
		C139.037,303.417,139.666,301.899,139.666,300.132z"/>
	<path fill="#F9F9F9" d="M148.511,294.125c-0.473-0.288-1.003-0.432-1.589-0.432c-0.587,0-1.087,0.183-1.5,0.548
		s-0.62,0.865-0.62,1.5v0.09c0,0.754,0.419,1.443,1.258,2.065c0.359,0.264,0.763,0.523,1.212,0.781s0.898,0.533,1.348,0.826
		c0.448,0.294,0.855,0.604,1.221,0.934c0.365,0.33,0.665,0.734,0.898,1.213s0.351,1.006,0.351,1.58v0.18
		c0,1.138-0.387,2.042-1.159,2.713c-0.772,0.67-1.728,1.005-2.864,1.005c-1.497,0-2.658-0.616-3.484-1.85v-0.97
		c0.311,0.683,0.769,1.236,1.374,1.661c0.604,0.426,1.355,0.638,2.254,0.638c0.897,0,1.676-0.287,2.335-0.862
		c0.658-0.574,0.987-1.341,0.987-2.299v-0.107c0-0.599-0.155-1.146-0.467-1.644s-0.7-0.904-1.167-1.222s-0.977-0.649-1.527-0.997
		c-0.551-0.347-1.06-0.67-1.526-0.97c-0.467-0.299-0.856-0.676-1.167-1.131c-0.312-0.455-0.468-0.952-0.468-1.491v-0.126
		c0-0.838,0.27-1.479,0.809-1.922c0.539-0.442,1.203-0.664,1.994-0.664c1.102,0,1.976,0.407,2.622,1.222v0.916
		C149.358,294.807,148.984,294.412,148.511,294.125z"/>
	<path fill="#F9F9F9" d="M154.949,293.406h0.575v4.939l5.693-4.939h0.719l-6.161,5.37l7.741,8.101h-0.79l-7.185-7.489v7.489h-0.593
		V293.406z"/>
	<path fill="#F9F9F9" d="M172.929,293.083l6.735,13.794h-0.628l-2.551-5.137h-7.202l-2.515,5.137h-0.557L172.929,293.083z
		 M172.875,294.322l-3.358,6.896h6.753L172.875,294.322z"/>
	<path fill="#F9F9F9" d="M192.928,305.008c-1.359-1.4-2.038-3.038-2.038-4.912s0.688-3.496,2.065-4.867s3.029-2.057,4.957-2.057
		s3.574,0.683,4.939,2.048c1.365,1.364,2.047,2.99,2.047,4.876s-0.676,3.526-2.029,4.921c-1.354,1.396-2.97,2.093-4.85,2.093h-0.27
		C195.895,307.11,194.287,306.41,192.928,305.008z M204.307,300.132c0-1.767-0.626-3.281-1.877-4.544
		c-1.252-1.264-2.761-1.896-4.526-1.896c-1.767,0-3.278,0.632-4.535,1.896c-1.258,1.263-1.886,2.777-1.886,4.544
		s0.628,3.284,1.886,4.553c1.257,1.27,2.766,1.904,4.526,1.904c1.76,0,3.269-0.635,4.525-1.904
		C203.678,303.417,204.307,301.899,204.307,300.132z"/>
	<path fill="#F9F9F9" d="M208.85,293.406h0.772c1.161,0,2.183,0.428,3.063,1.284s1.32,1.862,1.32,3.018s-0.449,2.158-1.347,3.009
		c-0.898,0.85-1.862,1.274-2.893,1.274h-0.125l4.634,4.886h-0.772l-4.077-4.274v4.274h-0.575V293.406z M209.425,301.47h0.323
		c0.97,0,1.826-0.371,2.568-1.113s1.113-1.623,1.113-2.641s-0.383-1.904-1.149-2.658s-1.641-1.132-2.622-1.132h-0.233V301.47z"/>
	<path fill="#F9F9F9" d="M217.956,293.406h0.575c2.012,0,3.634,0.662,4.867,1.984c1.233,1.323,1.851,2.91,1.851,4.76
		c0,1.851-0.614,3.434-1.842,4.751s-2.853,1.976-4.876,1.976h-0.575V293.406z M218.675,293.945h-0.144v12.375h0.144
		c1.748,0,3.182-0.604,4.302-1.814c1.119-1.209,1.68-2.661,1.68-4.355s-0.561-3.152-1.68-4.373
		C221.856,294.555,220.423,293.945,218.675,293.945z"/>
	<path fill="#F9F9F9" d="M229.289,293.406h0.593v13.471h-0.593V293.406z"/>
	<path fill="#F9F9F9" d="M244.377,293.406h0.521v13.668l-9.914-12.195v11.998h-0.521v-13.668l9.915,12.177V293.406z"/>
	<path fill="#F9F9F9" d="M255.296,293.083l6.735,13.794h-0.628l-2.551-5.137h-7.202l-2.515,5.137h-0.557L255.296,293.083z
		 M255.242,294.322l-3.358,6.896h6.753L255.242,294.322z"/>
	<path fill="#F9F9F9" d="M270.905,307.074h-0.198c-1.233,0-2.383-0.323-3.448-0.97c-1.066-0.646-1.907-1.506-2.523-2.577
		c-0.617-1.071-0.925-2.212-0.925-3.422c0-1.903,0.688-3.541,2.065-4.912s3.023-2.057,4.939-2.057c1.28,0,2.496,0.335,3.646,1.006
		v0.665c-1.126-0.767-2.341-1.15-3.646-1.15c-1.761,0-3.27,0.632-4.526,1.896c-1.258,1.264-1.886,2.778-1.886,4.544
		c0,1.767,0.628,3.284,1.886,4.553c1.257,1.27,2.766,1.904,4.526,1.904c1.305,0,2.52-0.383,3.646-1.149v0.664
		C273.371,306.739,272.186,307.074,270.905,307.074z"/>
	<path fill="#F9F9F9" d="M278.771,293.406h0.593v13.471h-0.593V293.406z"/>
	<path fill="#F9F9F9" d="M285.723,293.926v-0.521h3.916v9.34c0,1.305-0.356,2.365-1.069,3.179c-0.712,0.814-1.644,1.222-2.793,1.222
		h-0.18c-0.958,0-1.838-0.342-2.64-1.023v-0.737c0.754,0.826,1.658,1.24,2.712,1.24s1.88-0.356,2.479-1.069
		c0.599-0.712,0.898-1.625,0.898-2.739v-8.891H285.723z"/>
	<path fill="#F9F9F9" d="M299.067,293.083l6.735,13.794h-0.628l-2.551-5.137h-7.202l-2.515,5.137h-0.557L299.067,293.083z
		 M299.014,294.322l-3.358,6.896h6.753L299.014,294.322z"/>
</g>
<g>
	<path fill="#F9F9F9" d="M87.637,267.283c-3.302,1.916-7.039,2.869-11.206,2.869c-4.168,0-8.516-1.808-13.03-5.42l0.038-0.035
		c-0.389-0.311-0.735-0.64-1.065-0.991c-0.629-0.282-1.107-0.779-1.354-1.387c-3.556-4.118-5.334-8.908-5.334-14.373
		c0-5.56,2.138-10.475,6.41-14.754c4.272-4.274,9.175-6.409,14.702-6.409c5.524,0,10.437,1.876,14.747,5.63l-25.569,25.396
		c0.188,0.158,0.369,0.318,0.533,0.481c0.435,0.407,0.845,0.839,1.264,1.255c0.145,0.145,0.291,0.292,0.445,0.43l27.916-27.562
		c-5.146-5.697-10.942-8.888-18.103-8.888c-7.158,0-13.52,2.756-18.384,7.584c-4.87,4.832-7.302,10.545-7.302,17.149
		c0,6.603,2.453,12.388,7.354,17.357c4.898,4.97,10.649,7.455,17.251,7.455h0.937c7.021,0,13.001-2.71,17.937-8.131v-5.321
		C93.666,262.818,90.938,265.373,87.637,267.283z"/>
</g>
<g>
	<path fill="#F9F9F9" d="M241.688,267.283c-3.302,1.916-7.038,2.869-11.206,2.869c-4.169,0-8.517-1.808-13.03-5.42l0.037-0.035
		c-0.388-0.311-0.734-0.64-1.064-0.991c-0.629-0.282-1.107-0.779-1.354-1.387c-3.557-4.118-5.334-8.908-5.334-14.373
		c0-5.56,2.138-10.475,6.41-14.754c4.272-4.274,9.177-6.409,14.7-6.409c5.526,0,10.439,1.876,14.749,5.63l-25.57,25.396
		c0.188,0.158,0.37,0.318,0.534,0.481c0.435,0.407,0.845,0.839,1.264,1.255c0.145,0.145,0.291,0.292,0.444,0.43l27.917-27.562
		c-5.146-5.697-10.944-8.888-18.103-8.888s-13.52,2.756-18.385,7.584c-4.869,4.832-7.301,10.545-7.301,17.149
		c0,6.603,2.454,12.388,7.354,17.357c4.898,4.97,10.649,7.455,17.251,7.455h0.937c7.021,0,13-2.71,17.937-8.131v-5.321
		C247.718,262.818,244.989,265.373,241.688,267.283z"/>
</g>
</svg>
