<?xml version="1.0" encoding="utf-8"?>
<!-- Generator: Adobe Illustrator 16.0.0, SVG Export Plug-In . SVG Version: 6.00 Build 0)  -->
<!DOCTYPE svg PUBLIC "-//W3C//DTD SVG 1.1//EN" "http://www.w3.org/Graphics/SVG/1.1/DTD/svg11.dtd">
<svg version="1.1" id="Layer_1" xmlns="http://www.w3.org/2000/svg" xmlns:xlink="http://www.w3.org/1999/xlink" x="0px" y="0px"
	 width="57px" height="44px" viewBox="0 0 65 52" enable-background="new 0 0 65 52" xml:space="preserve">
<path fill="#231F20" d="M61.241,0H19.032C17.055,0,15,1.44,15,3.418V7h2V3.418C17,2.543,18.158,2,19.032,2h42.209
	C62.115,2,63,2.543,63,3.418V23H27v2h36v4.832C63,30.707,62.115,31,61.241,31H27v2h34.241C63.219,33,65,31.811,65,29.832V3.418
	C65,1.44,63.219,0,61.241,0"/>
<path fill="#231F20" d="M42.392,28.47c0-1.001-0.814-1.815-1.817-1.815c-1,0-1.814,0.814-1.814,1.815
	c0,1.002,0.814,1.816,1.814,1.816C41.577,30.286,42.392,29.472,42.392,28.47 M39.76,28.47c0-0.449,0.366-0.815,0.814-0.815
	c0.451,0,0.817,0.366,0.817,0.815c0,0.45-0.366,0.816-0.817,0.816C40.126,29.286,39.76,28.92,39.76,28.47"/>
<path fill="#231F20" d="M47.352,34.854l-1.961,0.393l0.748,3.74c0.04,0.2,0.012,0.411-0.08,0.595l-0.051,0.005
	c-0.157,0.313-0.474,0.414-0.825,0.414H37.03c-0.353,0-0.668-0.101-0.826-0.415c-0.105-0.211-0.126-0.404-0.058-0.631
	c0.152-0.504,0.844-3.453,0.666-4.171l-1.355,0.351l-0.606,0.014c0.004,0.361-0.353,2.398-0.618,3.272
	c-0.218,0.718-0.152,1.389,0.184,2.058c0.497,0.997,1.498,1.522,2.614,1.522h8.152c1.113,0,2.115-0.523,2.614-1.521l0.051-0.053
	c0.289-0.579,0.379-1.224,0.252-1.857L47.352,34.854z"/>
<path fill="#231F20" d="M25,12.481C25,10.559,23.441,9,21.518,9H3.481C1.559,9,0,10.559,0,12.481V48.52C0,50.441,1.559,52,3.481,52
	h18.036C23.441,52,25,50.441,25,48.52V12.481z M2,17h21v26H2V17z M2,12.491C2,11.675,2.665,11,3.481,11h17.6
	C21.897,11,23,11.675,23,12.491V15H2V12.491z M21.081,50h-17.6C2.665,50,2,48.958,2,48.142V45h21v3.142
	C23,48.958,21.897,50,21.081,50"/>
<path fill="#231F20" d="M17,12h-7c-0.553,0-1,0.447-1,1s0.447,1,1,1h7c0.553,0,1-0.447,1-1S17.553,12,17,12"/>
<path fill="#231F20" d="M12.281,45.862c-0.966,0-1.752,0.786-1.752,1.752s0.786,1.752,1.752,1.752s1.752-0.786,1.752-1.752
	S13.247,45.862,12.281,45.862 M12.033,47.614c0-0.137,0.111-0.248,0.248-0.248s0.248,0.111,0.248,0.248
	C12.529,47.888,12.033,47.888,12.033,47.614"/>
</svg>
