<?xml version="1.0" encoding="utf-8"?>
<!-- Generator: Adobe Illustrator 16.0.0, SVG Export Plug-In . SVG Version: 6.00 Build 0)  -->
<!DOCTYPE svg PUBLIC "-//W3C//DTD SVG 1.1//EN" "http://www.w3.org/Graphics/SVG/1.1/DTD/svg11.dtd">
<svg version="1.1" id="Capa_1" xmlns="http://www.w3.org/2000/svg" xmlns:xlink="http://www.w3.org/1999/xlink" x="0px" y="0px"
	 width="32px" height="32px" viewBox="0 0 24 24" enable-background="new 0 0 24 24" xml:space="preserve">
<g>
	<g>
		<path fill="#549F4A" d="M17.146,9.614c0-0.121-0.003-0.241-0.008-0.36c0.518-0.386,0.967-0.87,1.322-1.423
			c-0.475,0.214-0.986,0.357-1.522,0.417c0.548-0.337,0.968-0.876,1.166-1.523c-0.513,0.311-1.079,0.533-1.683,0.649
			c-0.484-0.55-1.174-0.9-1.936-0.913c-1.465-0.024-2.651,1.213-2.651,2.763c0,0.221,0.023,0.434,0.068,0.641
			c-2.205-0.142-4.158-1.29-5.465-3.02C6.21,7.26,6.08,7.744,6.08,8.264c0,0.982,0.468,1.854,1.179,2.37
			c-0.435-0.02-0.843-0.152-1.201-0.368c0,0.012,0,0.024,0,0.036c0,1.373,0.915,2.523,2.127,2.791
			c-0.223,0.063-0.457,0.096-0.698,0.096c-0.171-0.002-0.337-0.02-0.499-0.055c0.337,1.124,1.317,1.945,2.477,1.973
			c-0.908,0.753-2.051,1.203-3.292,1.199c-0.214,0-0.425-0.014-0.633-0.041c1.174,0.806,2.567,1.275,4.065,1.275
			C14.479,17.539,17.146,13.296,17.146,9.614z"/>
	</g>
</g>
</svg>
