<?xml version="1.0" encoding="utf-8"?>
<!-- Generator: Adobe Illustrator 16.0.0, SVG Export Plug-In . SVG Version: 6.00 Build 0)  -->
<!DOCTYPE svg PUBLIC "-//W3C//DTD SVG 1.1//EN" "http://www.w3.org/Graphics/SVG/1.1/DTD/svg11.dtd">
<svg version="1.1" id="Layer_1" xmlns="http://www.w3.org/2000/svg" xmlns:xlink="http://www.w3.org/1999/xlink" x="0px" y="0px"
	 width="242.719px" height="307.836px" viewBox="0 0 242.719 307.836" enable-background="new 0 0 242.719 307.836"
	 xml:space="preserve">
<polygon opacity="0.6" fill="#3B4A57" enable-background="new    " points="48.354,41.852 179.519,36.016 115.525,304.279 
	0,244.553 "/>
<path fill="#9DD6A4" d="M53.26,43.603c0.442-0.018,0.692,0.421,0.56,0.98c-0.134,0.559-0.6,1.025-1.042,1.041
	c-0.441,0.016-0.69-0.424-0.558-0.981S52.818,43.62,53.26,43.603z"/>
<path fill="#9CB5D3" d="M56.288,43.481c0.448-0.018,0.705,0.425,0.57,0.989c-0.135,0.563-0.608,1.033-1.057,1.049
	c-0.448,0.016-0.702-0.427-0.568-0.989C55.367,43.969,55.84,43.499,56.288,43.481z"/>
<path fill="#D39C9C" d="M59.36,43.36c0.455-0.019,0.717,0.427,0.581,0.995c-0.136,0.568-0.616,1.042-1.07,1.057
	c-0.454,0.016-0.714-0.43-0.578-0.996C58.428,43.851,58.906,43.377,59.36,43.36z"/>
<polygon fill="#EFEFEF" points="46.908,47.91 177.606,44.034 163.521,103.082 36.266,92.526 "/>
<g opacity="0.8">
	<path fill="#3B4A57" d="M107.099,55.915c-0.294,1.229-2.317,2.232-4.479,2.241l-4.857,0.019c-2.099,0.008-3.571-0.956-3.284-2.151
		c0.284-1.195,2.224-2.188,4.325-2.217l4.869-0.065C105.84,53.713,107.393,54.687,107.099,55.915z"/>
</g>
<g>
	<path fill="#D3D3D3" d="M131.168,70.844c-0.088,0.37-0.445,0.666-0.796,0.658l-61.903-1.474c-0.267-0.007-0.418-0.274-0.341-0.599
		l0.14-0.587c0.076-0.324,0.355-0.583,0.622-0.578l61.965,1.218c0.351,0.007,0.564,0.314,0.475,0.687L131.168,70.844z"/>
</g>
<g>
	<path fill="#D3D3D3" d="M119.956,75.901c-0.087,0.365-0.43,0.651-0.765,0.64L75.19,75.004c-0.276-0.01-0.435-0.286-0.356-0.615
		l0.143-0.599c0.079-0.33,0.366-0.591,0.642-0.583l44.044,1.355c0.337,0.011,0.538,0.315,0.451,0.68L119.956,75.901z"/>
</g>
<g>
	<path fill="#D3D3D3" d="M88.744,84.862c-0.154,0.653-0.742,1.161-1.302,1.129c-0.559-0.033-0.888-0.592-0.731-1.243
		c0.154-0.651,0.738-1.159,1.297-1.129C88.568,83.649,88.901,84.209,88.744,84.862z"/>
</g>
<g>
	<path fill="#D3D3D3" d="M94.614,85.19c-0.158,0.662-0.758,1.177-1.333,1.143c-0.574-0.033-0.913-0.601-0.756-1.26
		s0.754-1.173,1.329-1.144C94.432,83.962,94.771,84.528,94.614,85.19z"/>
</g>
<g>
	<path fill="#D3D3D3" d="M100.281,85.508c-0.16,0.671-0.774,1.191-1.363,1.156c-0.589-0.034-0.938-0.608-0.778-1.276
		c0.16-0.667,0.771-1.188,1.359-1.156C100.087,84.263,100.442,84.838,100.281,85.508z"/>
</g>
<polygon fill="#B2CCAE" points="34.821,98.586 161.609,111.101 146.479,174.521 23.389,146.508 "/>
<polygon fill="#D5DDE2" points="36.266,92.526 163.521,103.082 161.609,111.101 34.821,98.586 "/>
<g>
	<path fill="#ADADAD" d="M50.509,97.793c-0.075,0.314-0.339,0.553-0.586,0.529l-8.353-0.789c-0.237-0.021-0.37-0.29-0.296-0.599
		l0.133-0.56c0.073-0.31,0.326-0.542,0.563-0.521l8.361,0.754c0.248,0.021,0.389,0.296,0.313,0.611L50.509,97.793z"/>
</g>
<g>
	<path fill="#ADADAD" d="M63.508,99.001c-0.078,0.326-0.354,0.569-0.619,0.545l-8.887-0.839c-0.252-0.023-0.396-0.302-0.319-0.619
		l0.137-0.577c0.076-0.318,0.343-0.558,0.596-0.535l8.896,0.801c0.266,0.024,0.416,0.308,0.338,0.634L63.508,99.001z"/>
</g>
<g>
	<path fill="#ADADAD" d="M77.876,100.336c-0.081,0.338-0.375,0.589-0.658,0.563l-9.496-0.896c-0.271-0.025-0.424-0.313-0.346-0.642
		l0.143-0.596c0.078-0.329,0.36-0.576,0.631-0.552l9.506,0.856c0.283,0.025,0.446,0.319,0.366,0.656L77.876,100.336z"/>
</g>
<g>
	<path fill="#ADADAD" d="M138.038,105.152c-0.174,0.731-0.889,1.275-1.584,1.21c-0.695-0.064-1.119-0.714-0.944-1.44
		c0.173-0.729,0.882-1.274,1.576-1.213C137.783,103.771,138.213,104.421,138.038,105.152z"/>
</g>
<g>
	<path fill="#ADADAD" d="M145.348,105.82c-0.177,0.742-0.91,1.295-1.627,1.228c-0.715-0.068-1.154-0.728-0.979-1.465
		c0.177-0.74,0.905-1.292,1.621-1.229C145.08,104.417,145.524,105.078,145.348,105.82z"/>
</g>
<g>
	<path fill="#ADADAD" d="M152.428,106.467c-0.18,0.754-0.931,1.313-1.668,1.243c-0.735-0.069-1.189-0.738-1.011-1.487
		c0.18-0.749,0.925-1.31,1.663-1.244C152.148,105.044,152.605,105.714,152.428,106.467z"/>
</g>
<g>
	<path fill="#E2E2E2" d="M110.381,113.469c-0.087,0.364-0.421,0.628-0.75,0.591l-38.124-4.424c-0.276-0.032-0.436-0.327-0.356-0.662
		l0,0c0.081-0.334,0.369-0.579,0.645-0.548l38.15,4.316C110.273,112.779,110.469,113.104,110.381,113.469L110.381,113.469z"/>
</g>
<polygon fill="#E2E2E2" stroke="#BFD6B9" stroke-miterlimit="10" points="46.805,112.352 133.381,123.594 125.431,156.92 
	40.259,139.797 "/>
<line fill="none" stroke="#BFD6B9" stroke-miterlimit="10" x1="40.016" y1="140.007" x2="133.157" y2="123.496"/>
<line fill="none" stroke="#BFD6B9" stroke-miterlimit="10" x1="46.631" y1="112.272" x2="125.123" y2="157.174"/>
<polygon fill="#EFEFEF" points="23.389,146.508 146.479,174.521 118.831,290.429 2.498,234.087 "/>
<polygon fill="#AAB5BA" stroke="#97A0A5" stroke-miterlimit="10" points="34.393,164.384 51.995,169.079 45.439,196.563 
	28.119,190.685 "/>
<g>
	<path fill="#CCCCCC" d="M94.711,168.966c-0.086,0.362-0.411,0.593-0.727,0.516l-36.674-8.907c-0.268-0.064-0.418-0.387-0.339-0.718
		l0,0c0.079-0.333,0.358-0.551,0.625-0.486l36.701,8.802C94.614,168.247,94.799,168.603,94.711,168.966L94.711,168.966z"/>
</g>
<line fill="none" stroke="#97A0A5" stroke-miterlimit="10" x1="34.5" y1="164.153" x2="45.292" y2="196.636"/>
<line fill="none" stroke="#97A0A5" stroke-miterlimit="10" x1="51.935" y1="168.794" x2="28.142" y2="190.809"/>
<g>
	<path fill="#BBBBBC" d="M78.279,181.18c-0.084,0.352-0.392,0.57-0.687,0.487l-19.876-5.566c-0.269-0.075-0.421-0.406-0.341-0.742
		l0,0c0.08-0.336,0.362-0.547,0.631-0.473l19.89,5.507C78.192,180.477,78.364,180.826,78.279,181.18L78.279,181.18z"/>
</g>
<g>
	<path fill="#CCCCCC" d="M111.589,202.233c-0.09,0.383-0.441,0.606-0.785,0.501l-55.406-16.912
		c-0.266-0.079-0.418-0.418-0.339-0.753l0,0c0.08-0.336,0.362-0.542,0.629-0.462l55.444,16.749
		C111.478,201.459,111.68,201.853,111.589,202.233L111.589,202.233z"/>
</g>
<g>
	<path fill="#CCCCCC" d="M110.271,207.755c-0.091,0.382-0.442,0.603-0.784,0.493l-55.249-17.563
		c-0.267-0.085-0.417-0.425-0.337-0.76l0,0c0.08-0.336,0.359-0.539,0.627-0.455l55.288,17.4
		C110.16,206.979,110.363,207.374,110.271,207.755L110.271,207.755z"/>
</g>
<g>
	<path fill="#CCCCCC" d="M108.957,213.276c-0.092,0.383-0.442,0.599-0.784,0.486l-55.094-18.216
		c-0.267-0.091-0.416-0.433-0.336-0.768l0,0c0.08-0.335,0.359-0.536,0.625-0.449l55.134,18.054
		C108.844,212.496,109.047,212.896,108.957,213.276L108.957,213.276z"/>
</g>
<polygon fill="#AAB5BA" stroke="#97A0A5" stroke-miterlimit="10" points="81.295,226.478 103.463,234.901 95.895,266.627 
	74.091,256.678 "/>
<line fill="none" stroke="#97A0A5" stroke-miterlimit="10" x1="81.359" y1="226.109" x2="95.856" y2="266.657"/>
<line fill="none" stroke="#97A0A5" stroke-miterlimit="10" x1="103.526" y1="234.51" x2="74.061" y2="256.709"/>
<g>
	<path fill="#BBBBBC" d="M41.495,216.254c-0.078,0.328-0.348,0.518-0.602,0.418l-17.133-6.749c-0.232-0.091-0.359-0.422-0.284-0.737
		l0,0c0.075-0.315,0.324-0.497,0.557-0.407l17.146,6.697C41.433,215.574,41.575,215.922,41.495,216.254L41.495,216.254z"/>
</g>
<g>
	<path fill="#CCCCCC" d="M69.774,238.625c-0.085,0.354-0.391,0.544-0.684,0.421l-47.514-19.969
		c-0.231-0.098-0.356-0.432-0.281-0.747l0,0c0.075-0.316,0.323-0.493,0.554-0.397l47.549,19.825
		C69.691,237.881,69.858,238.268,69.774,238.625L69.774,238.625z"/>
</g>
<g>
	<path fill="#CCCCCC" d="M68.391,244.426c-0.086,0.357-0.39,0.541-0.683,0.414l-47.359-20.615c-0.229-0.099-0.355-0.436-0.28-0.752
		l0,0c0.075-0.316,0.323-0.491,0.553-0.393l47.395,20.473C68.308,243.68,68.476,244.069,68.391,244.426L68.391,244.426z"/>
</g>
<g>
	<path fill="#CCCCCC" d="M67.313,248.938c-0.085,0.355-0.39,0.539-0.68,0.41L19.393,228.23c-0.23-0.104-0.354-0.441-0.279-0.757l0,0
		c0.076-0.317,0.322-0.49,0.552-0.388l47.274,20.973C67.231,248.189,67.398,248.582,67.313,248.938L67.313,248.938z"/>
</g>
<g>
	<path fill="#ADADAD" d="M46.817,262.076c-0.156,0.655-0.7,0.98-1.208,0.724c-0.507-0.254-0.793-0.995-0.638-1.646
		s0.696-0.979,1.203-0.727C46.685,260.681,46.973,261.424,46.817,262.076z"/>
</g>
<g>
	<path fill="#ADADAD" d="M52.139,264.741c-0.158,0.661-0.716,0.988-1.236,0.728c-0.521-0.264-0.816-1.017-0.659-1.678
		c0.158-0.658,0.711-0.986,1.232-0.728C51.997,263.323,52.297,264.078,52.139,264.741z"/>
</g>
<g>
	<path fill="#ADADAD" d="M57.275,267.311c-0.159,0.673-0.729,1.001-1.263,0.73c-0.533-0.269-0.838-1.034-0.679-1.701
		c0.16-0.667,0.725-0.998,1.26-0.732S57.436,266.642,57.275,267.311z"/>
</g>
<polygon opacity="0.5" fill="#FFDD88" points="154.184,288.836 148.184,288.836 148.184,279.92 149.646,280.332 154.184,284.681 "/>
<polygon opacity="0.5" fill="#00C2CC" points="155.308,273.017 149.187,279.423 153.547,283.783 157.84,279.29 157.931,275.64 "/>
<polygon opacity="0.5" fill="#FFC107" points="154.099,284.765 154.255,289.076 157.931,288.959 156.533,287.198 "/>
<rect x="143.184" y="279.836" opacity="0.5" fill="#FFEDC0" width="5" height="9"/>
<polygon opacity="0.5" fill="#B8D8B2" points="167.371,274.836 158.215,274.836 158.18,267.836 167.336,267.836 "/>
<rect x="158.184" y="274.836" opacity="0.5" fill="#83B779" width="9" height="8"/>
<rect x="158.184" y="282.836" opacity="0.5" fill="#549F4A" width="9" height="6"/>
<polygon opacity="0.5" fill="#0097A7" points="157.84,279.29 153.547,283.783 157.906,288.143 157.931,285.806 "/>
<polygon opacity="0.5" fill="#00E7F2" points="150.845,268.587 144.661,274.771 149.187,279.423 155.308,273.017 "/>
<g opacity="0.8">
	<g>
		<g>
			<g>
				
					<path fill="none" stroke="#3B4A57" stroke-width="1.4" stroke-linecap="round" stroke-linejoin="round" stroke-miterlimit="10" d="
					M173.834,17.389l12.625,1.33c0.203-0.057,0.367-0.296,0.332-0.482l-5.763-11.311c-0.021-0.117-0.487-0.474-0.59-0.519
					c-0.076-0.08-8.097-1.982-8.097-1.982c-0.186,0.035-3.951,5.512-3.918,5.699c0,0,4.613,6.857,4.716,6.901
					C173.217,17.104,173.719,17.411,173.834,17.389z"/>
			</g>
			<g>
				<g>
					
						<line fill="none" stroke="#3B4A57" stroke-width="1.4" stroke-linecap="round" stroke-linejoin="round" stroke-miterlimit="10" x1="163.148" y1="6.869" x2="168.424" y2="10.125"/>
				</g>
				<g>
					
						<line fill="none" stroke="#3B4A57" stroke-width="1.4" stroke-linecap="round" stroke-linejoin="round" stroke-miterlimit="10" x1="172.342" y1="4.426" x2="167.41" y2="0.7"/>
				</g>
			</g>
			<g>
				
					<ellipse transform="matrix(-0.5676 0.8233 -0.8233 -0.5676 282.4111 -127.8099)" fill="none" stroke="#3B4A57" stroke-width="1.4" stroke-linecap="round" stroke-linejoin="round" stroke-miterlimit="10" cx="174.768" cy="10.255" rx="0.825" ry="1.004"/>
			</g>
		</g>
	</g>
	
		<line fill="none" stroke="#3B4A57" stroke-width="1.4" stroke-linecap="round" stroke-linejoin="round" stroke-miterlimit="10" x1="186.691" y1="18.453" x2="175.606" y2="10.807"/>
</g>
<line opacity="0.8" fill="none" stroke="#3B4A57" stroke-linecap="round" stroke-linejoin="round" stroke-miterlimit="10" x1="195.561" y1="12.774" x2="184.697" y2="28.898"/>
<rect x="195.074" y="10.76" transform="matrix(0.5589 -0.8292 0.8292 0.5589 76.6998 167.9093)" opacity="0.8" fill="none" stroke="#3B4A57" stroke-linecap="round" stroke-linejoin="round" stroke-miterlimit="10" width="2.203" height="2.202"/>
<rect x="182.981" y="28.71" transform="matrix(0.5589 -0.8292 0.8292 0.5589 56.4804 165.7995)" opacity="0.8" fill="none" stroke="#3B4A57" stroke-linecap="round" stroke-linejoin="round" stroke-miterlimit="10" width="2.203" height="2.202"/>
<path fill="#3B4A57" d="M190.803,20.706c0.072,0.372-0.171,0.733-0.543,0.806c-0.374,0.073-0.733-0.17-0.806-0.542
	c-0.072-0.373,0.17-0.734,0.543-0.807C190.369,20.089,190.73,20.333,190.803,20.706"/>
<circle opacity="0.8" fill="none" stroke="#3B4A57" stroke-linecap="round" stroke-linejoin="round" stroke-miterlimit="10" cx="190.128" cy="20.836" r="0.687"/>
<g opacity="0.8">
	<path fill="none" stroke="#3B4A57" stroke-width="2" stroke-linecap="round" stroke-linejoin="round" stroke-miterlimit="10" d="
		M224.558,78.061v-4.996h-6.609v4.996c-2.404,1.212-4.056,3.695-4.056,6.569c0,4.066,3.295,7.362,7.36,7.362
		s7.361-3.296,7.361-7.362C228.614,81.756,226.961,79.272,224.558,78.061z"/>
</g>
<line opacity="0.8" fill="none" stroke="#3B4A57" stroke-width="2" stroke-linecap="round" stroke-linejoin="round" stroke-miterlimit="10" x1="218.184" y1="71.836" x2="224.184" y2="71.836"/>
<line opacity="0.8" fill="none" stroke="#3B4A57" stroke-width="2" stroke-linecap="round" stroke-linejoin="round" stroke-miterlimit="10" x1="218.184" y1="69.836" x2="224.184" y2="69.836"/>
<path opacity="0.4" fill="#E5D66A" d="M224.178,78.536v-4.465h-5.905v4.465c-2.149,1.083-3.625,3.302-3.625,5.87
	c0,3.634,2.944,6.578,6.577,6.578c3.632,0,6.578-2.944,6.578-6.578C227.803,81.838,226.325,79.619,224.178,78.536z"/>
<g opacity="0.8">
	
		<circle fill="none" stroke="#3B4A57" stroke-linecap="round" stroke-linejoin="round" stroke-dasharray="1.9912,1.9912" cx="221.297" cy="83.836" r="20.922"/>
</g>
<path opacity="0.8" fill="#E5D66A" d="M213.948,93.824l-2.937,2.935c-0.271,0.273-0.271,0.711,0,0.982
	c0.27,0.268,0.707,0.268,0.979-0.003l2.936-2.935c0.27-0.271,0.27-0.709,0-0.979C214.655,93.557,214.216,93.557,213.948,93.824z"/>
<path opacity="0.8" fill="#E5D66A" d="M221.299,95.174c-0.383,0-0.693,0.309-0.693,0.691v4.149c0,0.383,0.311,0.694,0.693,0.694
	c0.381,0,0.69-0.312,0.69-0.694v-4.149C221.989,95.482,221.68,95.174,221.299,95.174z"/>
<g opacity="0.8">
	<path fill="#E5D66A" d="M228.124,93.825c-0.268-0.271-0.707-0.271-0.976,0c-0.271,0.271-0.271,0.709-0.002,0.979l2.937,2.935
		c0.271,0.271,0.708,0.271,0.979,0c0.27-0.268,0.27-0.708,0-0.977L228.124,93.825z"/>
</g>
<path fill="none" stroke="#566875" stroke-width="2" stroke-linecap="round" stroke-linejoin="round" stroke-miterlimit="10" d="
	M149.126,279.791h-5.597c-0.737,0-1.34,0.604-1.34,1.34v6.852c0,0.737,0.603,1.34,1.34,1.34h19.313"/>
<path fill="none" stroke="#566875" stroke-width="2" stroke-linecap="round" stroke-linejoin="round" stroke-miterlimit="10" d="
	M157.93,275.115l-6.138-6.138c-0.521-0.521-1.373-0.521-1.895,0l-4.846,4.846c-0.521,0.521-0.521,1.374,0,1.895l13.241,13.241"/>
<path fill="none" stroke="#566875" stroke-width="2" stroke-linecap="round" stroke-linejoin="round" stroke-miterlimit="10" d="
	M166.122,289.322c0.737,0,1.34-0.603,1.34-1.34v-18.664c0-0.737-0.603-1.34-1.34-1.34h-6.852c-0.737,0-1.34,0.603-1.34,1.34v18.664
	c0,0.737,0.603,1.34,1.34,1.34H166.122z"/>
<path d="M161.445,286.763c0,0.448-0.363,0.812-0.812,0.812s-0.812-0.363-0.812-0.812s0.363-0.812,0.812-0.812
	S161.445,286.314,161.445,286.763"/>
<g opacity="0.8">
	
		<circle fill="none" stroke="#3B4A57" stroke-linecap="round" stroke-linejoin="round" stroke-dasharray="1.9885,1.9885" cx="155.64" cy="278.654" r="22.16"/>
</g>
<g>
	<rect x="179.099" y="155.81" fill="#FFFFFF" width="19.462" height="2.684"/>
	
		<rect x="179.184" y="155.836" opacity="0.8" fill="none" stroke="#3B4A57" stroke-width="2" stroke-linejoin="round" stroke-miterlimit="10" width="19" height="17"/>
	
		<line fill="none" stroke="#5B6B75" stroke-width="2" stroke-linejoin="round" stroke-miterlimit="10" x1="179.184" y1="157.836" x2="198.184" y2="157.836"/>
	<circle fill="#5B6B75" cx="180.956" cy="157.174" r="0.438"/>
	<circle opacity="0.8" fill="#549F4A" cx="182.298" cy="157.174" r="0.438"/>
	<circle fill="#5B6B75" cx="183.64" cy="157.174" r="0.439"/>
	
		<rect x="180.184" y="160.836" opacity="0.8" fill="none" stroke="#3B4A57" stroke-width="2" stroke-linejoin="round" stroke-miterlimit="10" width="7" height="4"/>
	
		<rect x="190.184" y="160.836" opacity="0.8" fill="none" stroke="#3B4A57" stroke-width="2" stroke-linejoin="round" stroke-miterlimit="10" width="6" height="4"/>
	
		<line opacity="0.8" fill="none" stroke="#549F4A" stroke-width="2" stroke-linecap="round" stroke-linejoin="round" stroke-miterlimit="10" x1="181.184" y1="167.836" x2="187.184" y2="167.836"/>
	
		<line opacity="0.8" fill="none" stroke="#549F4A" stroke-width="2" stroke-linecap="round" stroke-linejoin="round" stroke-miterlimit="10" x1="181.184" y1="169.836" x2="187.184" y2="169.836"/>
	
		<line opacity="0.8" fill="none" stroke="#549F4A" stroke-width="2" stroke-linecap="round" stroke-linejoin="round" stroke-miterlimit="10" x1="191.184" y1="167.836" x2="196.184" y2="167.836"/>
	
		<line opacity="0.8" fill="none" stroke="#549F4A" stroke-width="2" stroke-linecap="round" stroke-linejoin="round" stroke-miterlimit="10" x1="191.184" y1="169.836" x2="196.184" y2="169.836"/>
	<g>
		<path fill="#F5F7F7" d="M208.115,169.928l-2.625-2.624c-0.039-0.04-0.084-0.072-0.127-0.105c1.396-2.229,1.13-5.207-0.807-7.143
			c-1.09-1.09-2.54-1.691-4.081-1.691c-1.542,0-2.991,0.602-4.081,1.691c-1.089,1.089-1.688,2.538-1.688,4.081
			s0.6,2.992,1.688,4.081c1.09,1.091,2.539,1.69,4.081,1.69c1.169,0,2.284-0.347,3.23-0.988c0.025,0.03,0.047,0.063,0.076,0.092
			l2.625,2.625c0.228,0.228,0.531,0.354,0.854,0.354c0.322,0,0.626-0.126,0.854-0.354c0.229-0.229,0.354-0.531,0.354-0.854
			C208.469,170.46,208.344,170.156,208.115,169.928z M200.476,167.492c-0.896,0-1.739-0.35-2.373-0.983
			c-1.309-1.308-1.309-3.437,0-4.745c0.634-0.634,1.477-0.983,2.373-0.983c0.896,0,1.739,0.35,2.372,0.983
			c1.309,1.309,1.309,3.438,0,4.745C202.215,167.143,201.371,167.492,200.476,167.492z"/>
		<g>
			<path opacity="0.8" fill="#549F4A" d="M200.476,169.104c-1.326,0-2.573-0.518-3.512-1.455c-1.937-1.936-1.937-5.087,0-7.023
				c0.938-0.938,2.186-1.456,3.512-1.456s2.573,0.518,3.512,1.456c1.937,1.937,1.937,5.088,0,7.023
				C203.049,168.586,201.802,169.104,200.476,169.104z M200.476,159.976c-1.111,0-2.156,0.434-2.942,1.218
				c-1.622,1.623-1.622,4.263,0,5.885c0.786,0.786,1.831,1.22,2.942,1.22s2.156-0.434,2.942-1.22c1.622-1.622,1.622-4.262,0-5.885
				C202.632,160.409,201.587,159.976,200.476,159.976z"/>
			<path fill="#5B6B75" d="M206.992,170.917c-0.103,0-0.205-0.04-0.284-0.118l-2.088-2.088c-0.157-0.158-0.157-0.412,0-0.569
				c0.157-0.158,0.412-0.158,0.569,0l2.088,2.088c0.157,0.157,0.157,0.412,0,0.569C207.199,170.877,207.096,170.917,206.992,170.917
				z"/>
		</g>
	</g>
</g>
<g opacity="0.8">
	
		<circle fill="none" stroke="#3B4A57" stroke-linecap="round" stroke-linejoin="round" stroke-dasharray="2.0251,2.0251" cx="190.066" cy="164.491" r="18.698"/>
</g>
<path fill="none" stroke="#3B4A57" stroke-miterlimit="10" d="M142.952,307.836"/>
<path fill="none" stroke="#3B4A57" stroke-miterlimit="10" d="M181.07,26.043"/>
<path fill="none" stroke="#3B4A57" stroke-miterlimit="10" stroke-dasharray="2,2" d="M193.359,23.089
	c0,0,15.345,9.462,24.567,40.099"/>
<path fill="none" stroke="#3B4A57" stroke-miterlimit="10" stroke-dasharray="2,2" d="M221.297,104.758
	c0,0-3.567,25.623-20.821,44.199"/>
<path fill="none" stroke="#3B4A57" stroke-miterlimit="10" stroke-dasharray="2,2" d="M175.877,176.661
	c0,0-23.859,27.444-21.886,79.901"/>
</svg>
