<?xml version="1.0" encoding="utf-8"?>
<!-- Generator: Adobe Illustrator 16.0.0, SVG Export Plug-In . SVG Version: 6.00 Build 0)  -->
<!DOCTYPE svg PUBLIC "-//W3C//DTD SVG 1.1//EN" "http://www.w3.org/Graphics/SVG/1.1/DTD/svg11.dtd">
<svg version="1.1" id="Layer_1" xmlns="http://www.w3.org/2000/svg" xmlns:xlink="http://www.w3.org/1999/xlink" x="0px" y="0px"
	 width="290.443px" height="320.484px" viewBox="0 0 290.443 320.484" enable-background="new 0 0 290.443 320.484"
	 xml:space="preserve">
<polygon opacity="0.6" fill="#3B4A57" enable-background="new    " points="54.17,6.538 201.107,0 129.418,300.524 0,233.616 "/>
<path fill="#9DD6A4" d="M59.664,8.5c0.496-0.021,0.775,0.471,0.627,1.098c-0.147,0.626-0.672,1.148-1.167,1.166
	c-0.494,0.019-0.773-0.475-0.624-1.098C58.648,9.041,59.17,8.519,59.664,8.5z"/>
<path fill="#9CB5D3" d="M63.057,8.365c0.503-0.021,0.79,0.476,0.639,1.106s-0.682,1.157-1.183,1.175
	c-0.504,0.019-0.787-0.478-0.639-1.107C62.025,8.91,62.555,8.383,63.057,8.365z"/>
<path fill="#D39C9C" d="M66.498,8.228c0.511-0.021,0.804,0.479,0.65,1.114c-0.151,0.637-0.689,1.167-1.197,1.185
	c-0.51,0.019-0.801-0.48-0.648-1.115C65.454,8.777,65.989,8.247,66.498,8.228z"/>
<polygon fill="#EFEFEF" points="52.55,13.325 198.964,8.983 183.187,75.131 40.627,63.307 "/>
<g opacity="0.8">
	<path fill="#3B4A57" d="M119.978,22.292c-0.329,1.377-2.598,2.501-5.02,2.511l-5.439,0.021c-2.353,0.008-4.002-1.072-3.681-2.411
		c0.318-1.338,2.491-2.451,4.846-2.483l5.455-0.073C118.567,19.826,120.307,20.916,119.978,22.292z"/>
</g>
<g>
	<path fill="#D3D3D3" d="M146.94,39.016c-0.098,0.416-0.497,0.747-0.891,0.738l-69.348-1.651c-0.299-0.008-0.469-0.308-0.383-0.671
		l0.157-0.657c0.085-0.363,0.396-0.652,0.696-0.647l69.415,1.364c0.394,0.008,0.634,0.352,0.533,0.769L146.94,39.016z"/>
</g>
<g>
	<path fill="#D3D3D3" d="M134.381,44.683c-0.097,0.409-0.479,0.729-0.855,0.716l-49.292-1.723c-0.311-0.011-0.488-0.32-0.399-0.688
		l0.16-0.671c0.089-0.369,0.409-0.661,0.719-0.652l49.34,1.518c0.379,0.012,0.604,0.354,0.507,0.761L134.381,44.683z"/>
</g>
<g>
	<path fill="#D3D3D3" d="M99.416,54.721c-0.173,0.733-0.831,1.301-1.458,1.264c-0.626-0.035-0.993-0.662-0.818-1.391
		c0.172-0.729,0.826-1.299,1.451-1.266C99.219,53.363,99.592,53.99,99.416,54.721z"/>
</g>
<g>
	<path fill="#D3D3D3" d="M105.992,55.089c-0.178,0.741-0.85,1.317-1.493,1.279c-0.644-0.037-1.022-0.672-0.847-1.411
		c0.175-0.739,0.844-1.315,1.488-1.281C105.786,53.712,106.169,54.347,105.992,55.089z"/>
</g>
<g>
	<path fill="#D3D3D3" d="M112.34,55.444c-0.18,0.751-0.866,1.334-1.525,1.296c-0.661-0.039-1.05-0.684-0.872-1.431
		c0.179-0.749,0.863-1.332,1.521-1.295C112.123,54.049,112.521,54.693,112.34,55.444z"/>
</g>
<polygon fill="#B2CCAE" points="39.009,70.095 181.043,84.115 164.094,155.162 26.202,123.78 "/>
<polygon fill="#D5DDE2" points="40.627,63.307 183.187,75.131 181.043,84.115 39.009,70.095 "/>
<g>
	<path fill="#ADADAD" d="M56.582,69.206c-0.084,0.353-0.379,0.619-0.656,0.593l-9.355-0.883c-0.265-0.025-0.415-0.325-0.331-0.672
		l0.148-0.626c0.081-0.348,0.364-0.607,0.632-0.583l9.365,0.844c0.277,0.023,0.437,0.333,0.351,0.685L56.582,69.206z"/>
</g>
<g>
	<path fill="#ADADAD" d="M71.145,70.56c-0.087,0.365-0.396,0.639-0.692,0.61l-9.956-0.939c-0.282-0.026-0.442-0.338-0.357-0.693
		l0.152-0.647c0.086-0.355,0.383-0.625,0.668-0.6l9.965,0.897c0.298,0.027,0.467,0.345,0.378,0.709L71.145,70.56z"/>
</g>
<g>
	<path fill="#ADADAD" d="M87.241,72.056c-0.091,0.378-0.421,0.659-0.737,0.629l-10.639-1.004c-0.303-0.028-0.475-0.35-0.386-0.719
		l0.159-0.667c0.088-0.37,0.401-0.646,0.704-0.619l10.649,0.959c0.317,0.029,0.501,0.358,0.411,0.736L87.241,72.056z"/>
</g>
<g>
	<path fill="#ADADAD" d="M154.639,77.451c-0.195,0.819-0.996,1.429-1.775,1.355s-1.254-0.8-1.059-1.615
		c0.193-0.815,0.987-1.427,1.767-1.357C154.353,75.903,154.833,76.631,154.639,77.451z"/>
</g>
<g>
	<path fill="#ADADAD" d="M162.826,78.199c-0.198,0.832-1.019,1.449-1.822,1.375c-0.8-0.076-1.293-0.814-1.096-1.642
		c0.197-0.829,1.014-1.447,1.816-1.376C162.526,76.628,163.023,77.368,162.826,78.199z"/>
</g>
<g>
	<path fill="#ADADAD" d="M170.758,78.924c-0.2,0.844-1.043,1.469-1.868,1.392c-0.823-0.077-1.332-0.826-1.132-1.666
		c0.2-0.839,1.036-1.467,1.862-1.394C170.445,77.33,170.957,78.08,170.758,78.924z"/>
</g>
<g>
	<path fill="#E2E2E2" d="M123.654,86.768c-0.097,0.408-0.472,0.704-0.84,0.662l-42.708-4.956c-0.312-0.036-0.488-0.367-0.399-0.741
		l0,0c0.09-0.374,0.412-0.648,0.723-0.613l42.736,4.835C123.534,85.995,123.752,86.359,123.654,86.768L123.654,86.768z"/>
</g>
<polygon fill="#E2E2E2" stroke="#BFD6B9" stroke-miterlimit="10" points="52.434,85.516 149.42,98.11 140.515,135.444 45.1,116.262 
	"/>
<line fill="none" stroke="#BFD6B9" stroke-miterlimit="10" x1="44.828" y1="116.497" x2="149.171" y2="98"/>
<line fill="none" stroke="#BFD6B9" stroke-miterlimit="10" x1="52.238" y1="85.427" x2="140.17" y2="135.728"/>
<polygon fill="#EFEFEF" points="26.202,123.78 164.094,155.162 133.12,285.008 2.797,221.89 "/>
<polygon fill="#AAB5BA" stroke="#97A0A5" stroke-miterlimit="10" points="38.529,143.806 58.248,149.065 50.903,179.855 
	31.5,173.27 "/>
<g>
	<path fill="#CCCCCC" d="M106.101,148.938c-0.097,0.406-0.461,0.665-0.814,0.578l-41.084-9.979c-0.3-0.071-0.468-0.434-0.379-0.805
		l0,0c0.089-0.373,0.4-0.616,0.699-0.545l41.113,9.86C105.992,148.134,106.199,148.531,106.101,148.938L106.101,148.938z"/>
</g>
<line fill="none" stroke="#97A0A5" stroke-miterlimit="10" x1="38.649" y1="143.547" x2="50.738" y2="179.937"/>
<line fill="none" stroke="#97A0A5" stroke-miterlimit="10" x1="58.18" y1="148.746" x2="31.525" y2="173.408"/>
<g>
	<path fill="#BBBBBC" d="M87.692,162.621c-0.094,0.395-0.438,0.639-0.77,0.546l-22.266-6.236c-0.301-0.083-0.473-0.455-0.383-0.831
		l0,0c0.09-0.378,0.406-0.611,0.707-0.531l22.281,6.173C87.596,161.833,87.787,162.225,87.692,162.621L87.692,162.621z"/>
</g>
<g>
	<path fill="#CCCCCC" d="M125.008,186.207c-0.101,0.429-0.494,0.679-0.88,0.562L62.06,167.823c-0.298-0.09-0.47-0.47-0.38-0.846l0,0
		c0.09-0.376,0.405-0.607,0.704-0.518l62.111,18.762C124.883,185.34,125.11,185.781,125.008,186.207L125.008,186.207z"/>
</g>
<g>
	<path fill="#CCCCCC" d="M123.533,192.393c-0.103,0.428-0.496,0.673-0.879,0.553L60.762,173.27c-0.3-0.096-0.47-0.476-0.38-0.852
		l0,0c0.091-0.375,0.403-0.604,0.703-0.511l61.938,19.492C123.407,191.521,123.635,191.964,123.533,192.393L123.533,192.393z"/>
</g>
<g>
	<path fill="#CCCCCC" d="M122.06,198.579c-0.104,0.426-0.496,0.671-0.878,0.543l-61.721-20.406
		c-0.298-0.102-0.466-0.485-0.376-0.859l0,0c0.089-0.376,0.402-0.603,0.7-0.503l61.764,20.226
		C121.933,197.704,122.161,198.152,122.06,198.579L122.06,198.579z"/>
</g>
<polygon fill="#AAB5BA" stroke="#97A0A5" stroke-miterlimit="10" points="91.07,213.367 115.905,222.803 107.427,258.344 
	83.001,247.199 "/>
<line fill="none" stroke="#97A0A5" stroke-miterlimit="10" x1="91.144" y1="212.953" x2="107.384" y2="258.376"/>
<line fill="none" stroke="#97A0A5" stroke-miterlimit="10" x1="115.976" y1="222.365" x2="82.967" y2="247.233"/>
<g>
	<path fill="#BBBBBC" d="M46.485,201.913c-0.087,0.368-0.391,0.58-0.675,0.469l-19.193-7.563c-0.26-0.101-0.402-0.473-0.318-0.823
		l0,0c0.084-0.354,0.363-0.559,0.624-0.456l19.208,7.503C46.415,201.151,46.574,201.541,46.485,201.913L46.485,201.913z"/>
</g>
<g>
	<path fill="#CCCCCC" d="M78.165,226.974c-0.096,0.398-0.438,0.61-0.766,0.475l-53.229-22.371c-0.259-0.109-0.399-0.483-0.314-0.837
		l0,0c0.084-0.355,0.361-0.553,0.621-0.444l53.265,22.209C78.072,226.142,78.26,226.574,78.165,226.974L78.165,226.974z"/>
</g>
<g>
	<path fill="#CCCCCC" d="M76.615,233.474c-0.098,0.399-0.438,0.605-0.764,0.462l-53.058-23.092
		c-0.257-0.111-0.396-0.489-0.313-0.843l0,0c0.084-0.355,0.36-0.552,0.619-0.44l53.095,22.936
		C76.522,232.637,76.709,233.073,76.615,233.474L76.615,233.474z"/>
</g>
<g>
	<path fill="#CCCCCC" d="M75.408,238.527c-0.096,0.4-0.436,0.604-0.762,0.462l-52.92-23.658c-0.259-0.117-0.397-0.495-0.313-0.848
		l0,0c0.085-0.355,0.361-0.55,0.619-0.437l52.959,23.496C75.316,237.688,75.504,238.129,75.408,238.527L75.408,238.527z"/>
</g>
<g>
	<path fill="#ADADAD" d="M52.447,253.245c-0.176,0.735-0.785,1.1-1.354,0.811c-0.566-0.285-0.889-1.113-0.715-1.843
		c0.175-0.729,0.781-1.096,1.351-0.813C52.298,251.684,52.621,252.516,52.447,253.245z"/>
</g>
<g>
	<path fill="#ADADAD" d="M58.408,256.232c-0.178,0.739-0.801,1.105-1.385,0.813c-0.583-0.295-0.914-1.138-0.738-1.878
		c0.177-0.737,0.797-1.105,1.381-0.816C58.25,254.644,58.586,255.489,58.408,256.232z"/>
</g>
<g>
	<path fill="#ADADAD" d="M64.163,259.11c-0.179,0.755-0.816,1.119-1.414,0.818s-0.939-1.158-0.761-1.906
		c0.18-0.747,0.813-1.119,1.41-0.819C63.999,257.499,64.342,258.36,64.163,259.11z"/>
</g>
<g opacity="0.8">
	<g>
		<g>
			<g>
				
					<path fill="none" stroke="#3B4A57" stroke-width="1.4" stroke-linecap="round" stroke-linejoin="round" stroke-miterlimit="10" d="
					M177.173,304.693l0.45-16.692c-0.094-0.262-0.424-0.451-0.664-0.384l-14.244,8.713c-0.149,0.041-0.571,0.688-0.616,0.826
					c-0.1,0.105-1.772,10.822-1.772,10.822c0.067,0.236,7.634,4.617,7.874,4.554c0,0,8.521-6.752,8.567-6.893
					C176.863,305.531,177.212,304.841,177.173,304.693z"/>
			</g>
			<g>
				<g>
					
						<line fill="none" stroke="#3B4A57" stroke-width="1.4" stroke-linecap="round" stroke-linejoin="round" stroke-miterlimit="10" x1="164.469" y1="319.785" x2="168.199" y2="312.531"/>
				</g>
				<g>
					
						<line fill="none" stroke="#3B4A57" stroke-width="1.4" stroke-linecap="round" stroke-linejoin="round" stroke-miterlimit="10" x1="160.325" y1="307.979" x2="155.944" y2="314.826"/>
				</g>
			</g>
			<g>
				
					<path fill="none" stroke="#3B4A57" stroke-width="1.4" stroke-linecap="round" stroke-linejoin="round" stroke-miterlimit="10" d="
					M168.661,304.742c-0.364,0.631-1.085,0.898-1.603,0.597c-0.517-0.299-0.642-1.054-0.277-1.687
					c0.368-0.633,1.086-0.899,1.603-0.602C168.903,303.354,169.028,304.11,168.661,304.742z"/>
			</g>
		</g>
	</g>
	
		<line fill="none" stroke="#3B4A57" stroke-width="1.4" stroke-linecap="round" stroke-linejoin="round" stroke-miterlimit="10" x1="177.253" y1="287.724" x2="168.36" y2="303.042"/>
</g>
<line opacity="0.8" fill="none" stroke="#3B4A57" stroke-linecap="round" stroke-linejoin="round" stroke-miterlimit="10" enable-background="new    " x1="168.896" y1="276.672" x2="191.153" y2="289.268"/>
<rect x="190.97" y="288.536" transform="matrix(0.8703 0.4925 -0.4925 0.8703 167.772 -57.1582)" opacity="0.8" fill="none" stroke="#3B4A57" stroke-linecap="round" stroke-linejoin="round" stroke-miterlimit="10" enable-background="new    " width="2.895" height="2.896"/>
<path fill="#3B4A57" d="M179.784,282.1c0.48-0.134,0.979,0.149,1.113,0.629c0.134,0.482-0.147,0.979-0.628,1.111
	c-0.485,0.136-0.981-0.147-1.116-0.629C179.021,282.731,179.305,282.233,179.784,282.1"/>
<path opacity="0.8" fill="none" stroke="#3B4A57" stroke-linecap="round" stroke-linejoin="round" stroke-miterlimit="10" enable-background="new    " d="
	M179.784,282.1c0.481-0.136,0.98,0.147,1.114,0.628c0.131,0.482-0.151,0.979-0.63,1.112c-0.484,0.135-0.98-0.147-1.115-0.629
	C179.021,282.731,179.302,282.231,179.784,282.1z"/>
<polygon opacity="0.5" fill="#FFDD88" enable-background="new    " points="258.363,50.204 250.363,50.204 250.363,36.979 
	252.162,37.568 258.363,43.797 "/>
<polygon opacity="0.5" fill="#00C2CC" enable-background="new    " points="260.747,27.092 251.981,36.267 258.225,42.512 
	264.375,36.076 264.504,30.849 "/>
<polygon opacity="0.5" fill="#FFC107" enable-background="new    " points="258.363,43.917 258.363,49.829 264.255,49.925 
	262.128,47.403 "/>
<rect x="242.363" y="37.204" opacity="0.5" fill="#FFEDC0" enable-background="new    " width="8" height="13"/>
<polygon opacity="0.5" fill="#B8D8B2" enable-background="new    " points="278.025,29.204 264.912,29.204 264.86,20.204 
	277.975,20.204 "/>
<rect x="264.363" y="29.204" opacity="0.5" fill="#83B779" enable-background="new    " width="14" height="11"/>
<rect x="264.363" y="40.204" opacity="0.5" fill="#549F4A" enable-background="new    " width="14" height="10"/>
<polygon opacity="0.5" fill="#0097A7" enable-background="new    " points="264.375,36.076 258.225,42.512 264.469,48.756 
	264.504,45.408 "/>
<polygon opacity="0.5" fill="#00E7F2" enable-background="new    " points="254.355,20.748 245.5,29.604 251.981,36.267 
	260.747,27.092 "/>
<path fill="none" stroke="#566875" stroke-linecap="round" stroke-linejoin="round" stroke-miterlimit="10" d="M251.894,36.794
	h-8.017c-1.056,0-1.919,0.864-1.919,1.919v9.813c0,1.057,0.863,1.919,1.919,1.919h27.662"/>
<path fill="none" stroke="#566875" stroke-linecap="round" stroke-linejoin="round" stroke-miterlimit="10" d="M264.503,30.098
	l-8.791-8.791c-0.745-0.746-1.966-0.746-2.713,0l-6.939,6.94c-0.745,0.747-0.745,1.967,0,2.713l18.965,18.965"/>
<path fill="none" stroke="#566875" stroke-linecap="round" stroke-linejoin="round" stroke-miterlimit="10" d="M276.236,50.445
	c1.056,0,1.918-0.862,1.918-1.919V21.794c0-1.056-0.862-1.918-1.918-1.918h-9.813c-1.056,0-1.919,0.862-1.919,1.918v26.731
	c0,1.057,0.863,1.919,1.919,1.919H276.236z"/>
<path fill="#566875" d="M269.539,46.78c0,0.642-0.521,1.161-1.164,1.161c-0.642,0-1.162-0.521-1.162-1.161
	c0-0.644,0.521-1.163,1.162-1.163C269.018,45.616,269.539,46.137,269.539,46.78"/>
<g opacity="0.8">
	
		<circle fill="none" stroke="#3B4A57" stroke-linecap="round" stroke-linejoin="round" stroke-dasharray="2.0098,2.0098" cx="261.148" cy="35.91" r="28.795"/>
</g>
<g opacity="0.8">
	<path fill="none" stroke="#3B4A57" stroke-linecap="round" stroke-linejoin="round" stroke-dasharray="2.0098,2.0098" d="
		M262.943,137.91c0,15.901-12.894,28.796-28.796,28.796c-15.903,0-28.795-12.895-28.795-28.796
		c0-15.899,12.894-28.796,28.795-28.796C250.051,109.115,262.943,122.008,262.943,137.91z"/>
</g>
<g opacity="0.8">
	
		<circle fill="none" stroke="#3B4A57" stroke-linecap="round" stroke-linejoin="round" stroke-dasharray="2.0098,2.0098" cx="203.148" cy="237.91" r="28.795"/>
</g>
<g opacity="0.8">
	<path fill="none" stroke="#3B4A57" stroke-linecap="round" stroke-linejoin="round" stroke-miterlimit="10" d="M207.568,229.001
		v-7.352h-9.726v7.352c-3.536,1.783-5.967,5.436-5.967,9.664c0,5.982,4.849,10.831,10.828,10.831c5.98,0,10.83-4.849,10.83-10.831
		C213.535,234.437,211.103,230.784,207.568,229.001z"/>
</g>
<line opacity="0.8" fill="none" stroke="#3B4A57" stroke-linecap="round" stroke-linejoin="round" stroke-miterlimit="10" enable-background="new    " x1="197.363" y1="219.704" x2="207.363" y2="219.704"/>
<line opacity="0.8" fill="none" stroke="#3B4A57" stroke-linecap="round" stroke-linejoin="round" stroke-miterlimit="10" enable-background="new    " x1="197.363" y1="217.704" x2="207.363" y2="217.704"/>
<path opacity="0.4" fill="#E5D66A" enable-background="new    " d="M207.081,229.937v-6.305h-7.866v6.305
	c-2.86,1.528-4.826,4.662-4.826,8.289c0,5.132,3.922,9.289,8.761,9.289c4.836,0,8.76-4.157,8.76-9.289
	C211.908,234.599,209.94,231.465,207.081,229.937z"/>
<path opacity="0.8" fill="#E5D66A" enable-background="new    " d="M191.958,252.192l-4.318,4.316c-0.399,0.403-0.399,1.047,0,1.445
	c0.396,0.395,1.041,0.395,1.438-0.004l4.318-4.317c0.396-0.397,0.396-1.042,0-1.44C192.998,251.798,192.353,251.798,191.958,252.192
	z"/>
<path opacity="0.8" fill="#E5D66A" enable-background="new    " d="M202.772,254.178c-0.563,0-1.021,0.454-1.021,1.019v6.104
	c0,0.563,0.457,1.022,1.021,1.022c0.562,0,1.017-0.459,1.017-1.022v-6.104C203.789,254.632,203.334,254.178,202.772,254.178z"/>
<g opacity="0.8">
	<path fill="#E5D66A" d="M212.814,252.194c-0.395-0.397-1.041-0.397-1.437,0c-0.397,0.398-0.397,1.042-0.002,1.44l4.319,4.317
		c0.396,0.396,1.042,0.396,1.439,0c0.396-0.396,0.396-1.043,0-1.438L212.814,252.194z"/>
</g>
<g>
	
		<rect x="218.863" y="124.704" opacity="0.8" fill="none" stroke="#3B4A57" stroke-linejoin="round" stroke-miterlimit="10" enable-background="new    " width="30" height="26"/>
	
		<line fill="none" stroke="#5B6B75" stroke-linejoin="round" stroke-miterlimit="10" x1="219.363" y1="128.704" x2="249.363" y2="128.704"/>
	<circle fill="#5B6B75" cx="222.643" cy="126.527" r="0.685"/>
	<circle opacity="0.8" fill="#549F4A" enable-background="new    " cx="224.738" cy="126.527" r="0.685"/>
	<circle fill="#5B6B75" cx="226.833" cy="126.527" r="0.685"/>
	
		<rect x="221.863" y="130.704" opacity="0.8" fill="none" stroke="#3B4A57" stroke-linejoin="round" stroke-miterlimit="10" enable-background="new    " width="10" height="8"/>
	
		<rect x="236.863" y="130.704" opacity="0.8" fill="none" stroke="#3B4A57" stroke-linejoin="round" stroke-miterlimit="10" enable-background="new    " width="10" height="8"/>
	
		<line opacity="0.8" fill="none" stroke="#549F4A" stroke-linecap="round" stroke-linejoin="round" stroke-miterlimit="10" enable-background="new    " x1="222.363" y1="141.704" x2="231.363" y2="141.704"/>
	
		<line opacity="0.8" fill="none" stroke="#549F4A" stroke-linecap="round" stroke-linejoin="round" stroke-miterlimit="10" enable-background="new    " x1="222.363" y1="145.704" x2="231.363" y2="145.704"/>
	
		<line opacity="0.8" fill="none" stroke="#549F4A" stroke-linecap="round" stroke-linejoin="round" stroke-miterlimit="10" enable-background="new    " x1="236.363" y1="141.704" x2="246.363" y2="141.704"/>
	
		<line opacity="0.8" fill="none" stroke="#549F4A" stroke-linecap="round" stroke-linejoin="round" stroke-miterlimit="10" enable-background="new    " x1="236.363" y1="145.704" x2="246.363" y2="145.704"/>
</g>
<rect x="166.06" y="274.313" transform="matrix(0.8703 0.4925 -0.4925 0.8703 157.537 -46.7344)" opacity="0.8" fill="none" stroke="#3B4A57" stroke-linecap="round" stroke-linejoin="round" stroke-miterlimit="10" enable-background="new    " width="2.895" height="2.897"/>
<line fill="none" stroke="#3B4A57" stroke-miterlimit="10" stroke-dasharray="2" x1="181.864" y1="279.544" x2="192.605" y2="263.417"/>
<path fill="none" stroke="#3B4A57" stroke-miterlimit="10" stroke-dasharray="2" d="M221.587,215.627
	c0,0,13.287-21.357,12.563-48.298"/>
<path fill="none" stroke="#3B4A57" stroke-miterlimit="10" stroke-dasharray="2" d="M232.738,108.454
	C231.363,87.433,233,76.096,245.5,61.375"/>
</svg>
