<?xml version="1.0" encoding="utf-8"?>
<!-- Generator: Adobe Illustrator 16.0.0, SVG Export Plug-In . SVG Version: 6.00 Build 0)  -->
<!DOCTYPE svg PUBLIC "-//W3C//DTD SVG 1.1//EN" "http://www.w3.org/Graphics/SVG/1.1/DTD/svg11.dtd">
<svg version="1.1" id="Layer_1" xmlns="http://www.w3.org/2000/svg" xmlns:xlink="http://www.w3.org/1999/xlink" x="0px" y="0px"
	 width="301.443px" height="360.414px" viewBox="0 0 301.443 360.414" enable-background="new 0 0 301.443 360.414"
	 xml:space="preserve">
<polygon opacity="0.6" fill="#3B4A57" enable-background="new    " points="54.169,20.924 201.107,14.386 129.418,314.91 0,248.002 
	"/>
<path fill="#9DD6A4" d="M59.664,22.885c0.496-0.021,0.776,0.471,0.627,1.098c-0.149,0.626-0.672,1.148-1.167,1.166
	c-0.494,0.018-0.774-0.475-0.625-1.098C58.648,23.426,59.17,22.905,59.664,22.885z"/>
<path fill="#9CB5D3" d="M63.057,22.75c0.503-0.02,0.79,0.476,0.639,1.107c-0.152,0.631-0.682,1.157-1.183,1.175
	c-0.503,0.018-0.787-0.478-0.637-1.108C62.026,23.296,62.555,22.769,63.057,22.75z"/>
<path fill="#D39C9C" d="M66.498,22.613c0.511-0.021,0.804,0.479,0.651,1.114c-0.152,0.637-0.69,1.167-1.198,1.185
	c-0.509,0.018-0.8-0.481-0.648-1.116C65.454,23.163,65.989,22.633,66.498,22.613z"/>
<polygon fill="#EFEFEF" points="52.55,27.711 198.964,23.369 183.187,89.517 40.626,77.692 "/>
<g opacity="0.8">
	<path fill="#3B4A57" d="M119.978,36.678c-0.329,1.377-2.597,2.501-5.019,2.511l-5.44,0.021c-2.352,0.008-4.002-1.072-3.68-2.411
		c0.318-1.338,2.491-2.451,4.845-2.483l5.455-0.073C118.567,34.211,120.307,35.301,119.978,36.678z"/>
</g>
<g>
	<path fill="#D3D3D3" d="M146.94,53.402c-0.097,0.416-0.497,0.747-0.89,0.738l-69.348-1.651c-0.299-0.008-0.469-0.308-0.383-0.671
		l0.157-0.657c0.085-0.364,0.397-0.653,0.697-0.648l69.415,1.364c0.393,0.008,0.633,0.352,0.533,0.769L146.94,53.402z"/>
</g>
<g>
	<path fill="#D3D3D3" d="M134.381,59.068c-0.097,0.409-0.48,0.729-0.856,0.716l-49.292-1.723c-0.309-0.011-0.487-0.32-0.399-0.688
		l0.16-0.67c0.089-0.37,0.41-0.662,0.719-0.653l49.34,1.518c0.378,0.012,0.604,0.353,0.506,0.761L134.381,59.068z"/>
</g>
<g>
	<path fill="#D3D3D3" d="M99.416,69.106c-0.173,0.733-0.831,1.301-1.458,1.264c-0.626-0.036-0.993-0.663-0.819-1.391
		c0.172-0.73,0.827-1.299,1.452-1.266C99.219,67.748,99.592,68.375,99.416,69.106z"/>
</g>
<g>
	<path fill="#D3D3D3" d="M105.992,69.475c-0.178,0.741-0.85,1.317-1.493,1.279c-0.644-0.037-1.023-0.672-0.847-1.411
		c0.175-0.739,0.844-1.315,1.488-1.281C105.786,68.098,106.169,68.732,105.992,69.475z"/>
</g>
<g>
	<path fill="#D3D3D3" d="M112.34,69.83c-0.18,0.751-0.867,1.334-1.526,1.295c-0.661-0.039-1.05-0.683-0.872-1.43
		c0.179-0.749,0.863-1.332,1.522-1.295C112.123,68.435,112.521,69.079,112.34,69.83z"/>
</g>
<polygon fill="#B2CCAE" points="39.009,84.481 181.043,98.5 164.094,169.548 26.202,138.165 "/>
<polygon fill="#D5DDE2" points="40.626,77.692 183.187,89.517 181.043,98.5 39.009,84.481 "/>
<g>
	<path fill="#ADADAD" d="M56.583,83.592c-0.084,0.353-0.38,0.619-0.657,0.593l-9.356-0.883c-0.265-0.025-0.415-0.325-0.332-0.672
		l0.149-0.626c0.083-0.347,0.365-0.607,0.632-0.583l9.367,0.844c0.277,0.024,0.435,0.333,0.35,0.685L56.583,83.592z"/>
</g>
<g>
	<path fill="#ADADAD" d="M71.145,84.946c-0.087,0.365-0.397,0.638-0.692,0.61l-9.956-0.939c-0.282-0.027-0.443-0.338-0.358-0.694
		l0.154-0.647c0.086-0.356,0.383-0.625,0.667-0.6l9.966,0.898c0.296,0.027,0.465,0.344,0.377,0.709L71.145,84.946z"/>
</g>
<g>
	<path fill="#ADADAD" d="M87.241,86.442c-0.091,0.378-0.42,0.659-0.738,0.629l-10.638-1.004c-0.303-0.028-0.475-0.35-0.386-0.719
		l0.159-0.667c0.088-0.37,0.403-0.646,0.706-0.619l10.649,0.959c0.317,0.029,0.5,0.358,0.412,0.736L87.241,86.442z"/>
</g>
<g>
	<path fill="#ADADAD" d="M154.639,91.836c-0.195,0.82-0.996,1.429-1.775,1.356c-0.779-0.073-1.254-0.8-1.059-1.615
		c0.194-0.816,0.988-1.427,1.767-1.358C154.353,90.289,154.833,91.017,154.639,91.836z"/>
</g>
<g>
	<path fill="#ADADAD" d="M162.826,92.585c-0.198,0.832-1.019,1.45-1.822,1.375c-0.8-0.076-1.293-0.814-1.096-1.641
		c0.197-0.829,1.014-1.447,1.816-1.376C162.526,91.014,163.023,91.753,162.826,92.585z"/>
</g>
<g>
	<path fill="#ADADAD" d="M170.758,93.31c-0.201,0.844-1.043,1.469-1.869,1.392c-0.823-0.078-1.332-0.827-1.131-1.666
		c0.2-0.839,1.036-1.467,1.862-1.394C170.445,91.715,170.957,92.466,170.758,93.31z"/>
</g>
<g>
	<path fill="#E2E2E2" d="M123.654,101.153c-0.097,0.408-0.472,0.704-0.84,0.662l-42.708-4.956c-0.311-0.036-0.488-0.367-0.399-0.741
		l0,0c0.09-0.374,0.412-0.649,0.722-0.614l42.737,4.835C123.534,100.38,123.752,100.745,123.654,101.153L123.654,101.153z"/>
</g>
<polygon fill="#E2E2E2" stroke="#BFD6B9" stroke-miterlimit="10" points="52.434,99.902 149.42,112.496 140.515,149.831 
	45.1,130.647 "/>
<line fill="none" stroke="#BFD6B9" stroke-miterlimit="10" x1="44.828" y1="130.883" x2="149.171" y2="112.386"/>
<line fill="none" stroke="#BFD6B9" stroke-miterlimit="10" x1="52.239" y1="99.813" x2="140.17" y2="150.114"/>
<polygon fill="#EFEFEF" points="26.202,138.165 164.094,169.548 133.12,299.394 2.797,236.275 "/>
<polygon fill="#AAB5BA" stroke="#97A0A5" stroke-miterlimit="10" points="38.529,158.191 58.248,163.451 50.903,194.241 
	31.5,187.655 "/>
<g>
	<path fill="#CCCCCC" d="M106.101,163.323c-0.096,0.406-0.461,0.665-0.814,0.578l-41.084-9.979
		c-0.299-0.071-0.468-0.433-0.379-0.804l0,0c0.088-0.372,0.4-0.616,0.699-0.544l41.114,9.86
		C105.992,162.52,106.199,162.917,106.101,163.323L106.101,163.323z"/>
</g>
<line fill="none" stroke="#97A0A5" stroke-miterlimit="10" x1="38.649" y1="157.933" x2="50.739" y2="194.322"/>
<line fill="none" stroke="#97A0A5" stroke-miterlimit="10" x1="58.18" y1="163.132" x2="31.525" y2="187.794"/>
<g>
	<path fill="#BBBBBC" d="M87.692,177.007c-0.094,0.395-0.438,0.639-0.769,0.546l-22.266-6.236c-0.301-0.083-0.472-0.455-0.382-0.831
		l0,0c0.09-0.378,0.406-0.612,0.707-0.531l22.282,6.172C87.596,176.219,87.788,176.61,87.692,177.007L87.692,177.007z"/>
</g>
<g>
	<path fill="#CCCCCC" d="M125.008,200.593c-0.101,0.429-0.495,0.679-0.88,0.562L62.06,182.209c-0.298-0.089-0.469-0.469-0.38-0.845
		l0,0c0.09-0.376,0.406-0.608,0.706-0.518l62.111,18.762C124.883,199.726,125.11,200.166,125.008,200.593L125.008,200.593z"/>
</g>
<g>
	<path fill="#CCCCCC" d="M123.533,206.778c-0.103,0.427-0.496,0.673-0.879,0.552l-61.893-19.675
		c-0.299-0.096-0.468-0.476-0.378-0.852l0,0c0.089-0.375,0.403-0.604,0.703-0.511l61.937,19.493
		C123.407,205.907,123.635,206.35,123.533,206.778L123.533,206.778z"/>
</g>
<g>
	<path fill="#CCCCCC" d="M122.06,212.965c-0.103,0.426-0.496,0.671-0.878,0.543l-61.72-20.406c-0.298-0.102-0.466-0.485-0.376-0.859
		l0,0c0.089-0.376,0.403-0.603,0.7-0.503l61.764,20.225C121.933,212.09,122.161,212.538,122.06,212.965L122.06,212.965z"/>
</g>
<polygon fill="#AAB5BA" stroke="#97A0A5" stroke-miterlimit="10" points="91.07,227.753 115.905,237.188 107.427,272.729 
	83.001,261.585 "/>
<line fill="none" stroke="#97A0A5" stroke-miterlimit="10" x1="91.144" y1="227.339" x2="107.384" y2="272.762"/>
<line fill="none" stroke="#97A0A5" stroke-miterlimit="10" x1="115.976" y1="236.75" x2="82.967" y2="261.619"/>
<g>
	<path fill="#BBBBBC" d="M46.485,216.299c-0.087,0.368-0.39,0.58-0.674,0.469l-19.194-7.563c-0.26-0.101-0.402-0.473-0.318-0.824
		l0,0c0.084-0.354,0.363-0.558,0.624-0.456l19.208,7.503C46.415,215.537,46.574,215.927,46.485,216.299L46.485,216.299z"/>
</g>
<g>
	<path fill="#CCCCCC" d="M78.165,241.359c-0.096,0.398-0.438,0.61-0.766,0.474l-53.228-22.371c-0.259-0.109-0.4-0.483-0.315-0.837
		l0,0c0.084-0.355,0.362-0.552,0.621-0.444l53.266,22.209C78.072,240.527,78.259,240.96,78.165,241.359L78.165,241.359z"/>
</g>
<g>
	<path fill="#CCCCCC" d="M76.615,247.859c-0.097,0.399-0.437,0.605-0.764,0.462l-53.056-23.092
		c-0.257-0.111-0.397-0.489-0.313-0.843l0,0c0.084-0.355,0.361-0.552,0.619-0.44l53.094,22.935
		C76.522,247.022,76.709,247.459,76.615,247.859L76.615,247.859z"/>
</g>
<g>
	<path fill="#CCCCCC" d="M75.408,252.913c-0.095,0.4-0.436,0.604-0.761,0.461l-52.921-23.658c-0.258-0.117-0.397-0.495-0.313-0.847
		l0,0c0.085-0.356,0.361-0.55,0.619-0.437l52.959,23.496C75.317,252.074,75.504,252.515,75.408,252.913L75.408,252.913z"/>
</g>
<g>
	<path fill="#ADADAD" d="M52.447,267.631c-0.175,0.736-0.785,1.1-1.354,0.811c-0.567-0.285-0.889-1.113-0.715-1.843
		c0.175-0.728,0.781-1.096,1.349-0.813C52.298,266.069,52.621,266.901,52.447,267.631z"/>
</g>
<g>
	<path fill="#ADADAD" d="M58.408,270.618c-0.178,0.739-0.801,1.105-1.385,0.813c-0.583-0.295-0.915-1.138-0.738-1.878
		c0.177-0.737,0.796-1.105,1.381-0.816C58.25,269.029,58.585,269.874,58.408,270.618z"/>
</g>
<g>
	<path fill="#ADADAD" d="M64.163,273.496c-0.179,0.754-0.817,1.119-1.414,0.818c-0.598-0.301-0.94-1.158-0.761-1.906
		c0.179-0.747,0.812-1.119,1.41-0.82C63.999,271.885,64.341,272.746,64.163,273.496z"/>
</g>
<g opacity="0.8">
	<g>
		<g>
			<g>
				
					<path fill="none" stroke="#3B4A57" stroke-width="1.4" stroke-linecap="round" stroke-linejoin="round" stroke-miterlimit="10" d="
					M168.492,344.498l5.384-20.757c-0.042-0.354-0.401-0.688-0.721-0.674l-20.339,6.792c-0.2,0.007-0.915,0.695-1.013,0.855
					c-0.152,0.106-5.342,13.029-5.342,13.029c0.015,0.317,8.219,7.981,8.539,7.972c0,0,12.61-5.988,12.71-6.149
					C167.862,345.46,168.5,344.697,168.492,344.498z"/>
			</g>
			<g>
				<g>
					
						<line fill="none" stroke="#3B4A57" stroke-width="1.4" stroke-linecap="round" stroke-linejoin="round" stroke-miterlimit="10" x1="148.239" y1="359.714" x2="155.001" y2="351.716"/>
				</g>
				<g>
					
						<line fill="none" stroke="#3B4A57" stroke-width="1.4" stroke-linecap="round" stroke-linejoin="round" stroke-miterlimit="10" x1="146.462" y1="343.744" x2="139.003" y2="351.049"/>
				</g>
			</g>
			<g>
				
					<path fill="none" stroke="#3B4A57" stroke-width="1.4" stroke-linecap="round" stroke-linejoin="round" stroke-miterlimit="10" d="
					M157.828,342.103c-0.642,0.685-1.617,0.813-2.179,0.286c-0.562-0.521-0.499-1.504,0.142-2.189
					c0.64-0.687,1.616-0.814,2.175-0.289C158.53,340.437,158.47,341.418,157.828,342.103z"/>
			</g>
		</g>
	</g>
	
		<line fill="none" stroke="#3B4A57" stroke-width="1.4" stroke-linecap="round" stroke-linejoin="round" stroke-miterlimit="10" x1="173.49" y1="323.288" x2="157.94" y2="339.889"/>
</g>
<line opacity="0.8" fill="none" stroke="#3B4A57" stroke-linecap="round" stroke-linejoin="round" stroke-miterlimit="10" x1="166.227" y1="307.048" x2="190.439" y2="329.236"/>
<rect x="162.995" y="303.932" transform="matrix(-0.7371 -0.6757 0.6757 -0.7371 79.7425 642.6042)" opacity="0.8" fill="none" stroke="#3B4A57" stroke-linecap="round" stroke-linejoin="round" stroke-miterlimit="10" width="3.721" height="3.721"/>
<rect x="189.952" y="328.631" transform="matrix(-0.7374 -0.6754 0.6754 -0.7374 110.0293 703.7585)" opacity="0.8" fill="none" stroke="#3B4A57" stroke-linecap="round" stroke-linejoin="round" stroke-miterlimit="10" width="3.719" height="3.722"/>
<path fill="#3B4A57" d="M178.284,316.982c0.638-0.027,1.181,0.47,1.209,1.109c0.028,0.643-0.467,1.182-1.108,1.21
	c-0.641,0.028-1.184-0.468-1.211-1.11C177.145,317.554,177.644,317.011,178.284,316.982"/>
<circle opacity="0.8" fill="none" stroke="#3B4A57" stroke-linecap="round" stroke-linejoin="round" stroke-miterlimit="10" cx="178.334" cy="318.142" r="1.16"/>
<path fill="none" stroke="#3B4A57" stroke-miterlimit="10" d="M184.761,334.579"/>
<polygon opacity="0.5" fill="#FFDD88" points="269.363,43.59 261.363,43.59 261.363,30.364 263.162,30.954 269.363,37.183 "/>
<polygon opacity="0.5" fill="#00C2CC" points="271.747,20.478 262.981,29.652 269.225,35.897 275.375,29.462 275.504,24.234 "/>
<polygon opacity="0.5" fill="#FFC107" points="269.363,37.303 269.363,43.215 275.255,43.311 273.128,40.789 "/>
<rect x="253.363" y="30.59" opacity="0.5" fill="#FFEDC0" width="8" height="13"/>
<polygon opacity="0.5" fill="#B8D8B2" points="289.025,22.59 275.912,22.59 275.86,13.59 288.975,13.59 "/>
<rect x="275.363" y="22.59" opacity="0.5" fill="#83B779" width="14" height="11"/>
<rect x="275.363" y="33.59" opacity="0.5" fill="#549F4A" width="14" height="10"/>
<polygon opacity="0.5" fill="#0097A7" points="275.375,29.462 269.225,35.897 275.47,42.142 275.504,38.794 "/>
<polygon opacity="0.5" fill="#00E7F2" points="265.355,14.134 256.5,22.989 262.981,29.652 271.747,20.478 "/>
<path fill="none" stroke="#566875" stroke-linecap="round" stroke-linejoin="round" stroke-miterlimit="10" d="M262.894,30.18
	h-8.016c-1.056,0-1.919,0.864-1.919,1.919v9.813c0,1.056,0.863,1.919,1.919,1.919h27.662"/>
<path fill="none" stroke="#566875" stroke-linecap="round" stroke-linejoin="round" stroke-miterlimit="10" d="M275.503,23.483
	l-8.791-8.791c-0.745-0.746-1.966-0.746-2.713,0l-6.94,6.94c-0.745,0.747-0.745,1.967,0,2.713l18.965,18.965"/>
<path fill="none" stroke="#566875" stroke-linecap="round" stroke-linejoin="round" stroke-miterlimit="10" d="M287.236,43.831
	c1.056,0,1.918-0.863,1.918-1.919V15.18c0-1.056-0.862-1.918-1.918-1.918h-9.813c-1.056,0-1.919,0.862-1.919,1.918v26.732
	c0,1.056,0.863,1.919,1.919,1.919H287.236z"/>
<path fill="#566875" d="M280.539,40.165c0,0.642-0.521,1.162-1.164,1.162c-0.642,0-1.162-0.521-1.162-1.162
	c0-0.643,0.521-1.163,1.162-1.163C280.018,39.002,280.539,39.522,280.539,40.165"/>
<g opacity="0.8">
	
		<circle fill="none" stroke="#3B4A57" stroke-linecap="round" stroke-linejoin="round" stroke-dasharray="2.0098,2.0098" cx="272.148" cy="29.296" r="28.795"/>
</g>
<g opacity="0.8">
	
		<circle fill="none" stroke="#3B4A57" stroke-linecap="round" stroke-linejoin="round" stroke-dasharray="2.0098,2.0098" cx="250.148" cy="139.296" r="28.795"/>
</g>
<g opacity="0.8">
	
		<circle fill="none" stroke="#3B4A57" stroke-linecap="round" stroke-linejoin="round" stroke-dasharray="2.0098,2.0098" cx="218.148" cy="261.296" r="28.795"/>
</g>
<g opacity="0.8">
	<path fill="none" stroke="#3B4A57" stroke-linecap="round" stroke-linejoin="round" stroke-miterlimit="10" d="M222.568,252.387
		v-7.351h-9.725v7.351c-3.537,1.783-5.967,5.436-5.967,9.664c0,5.983,4.848,10.831,10.828,10.831s10.83-4.848,10.83-10.831
		C228.535,257.822,226.103,254.17,222.568,252.387z"/>
</g>
<line opacity="0.8" fill="none" stroke="#3B4A57" stroke-linecap="round" stroke-linejoin="round" stroke-miterlimit="10" x1="212.363" y1="243.09" x2="222.363" y2="243.09"/>
<line opacity="0.8" fill="none" stroke="#3B4A57" stroke-linecap="round" stroke-linejoin="round" stroke-miterlimit="10" x1="212.363" y1="241.09" x2="222.363" y2="241.09"/>
<path opacity="0.4" fill="#E5D66A" d="M222.081,253.322v-6.305h-7.866v6.305c-2.861,1.528-4.827,4.662-4.827,8.289
	c0,5.132,3.922,9.289,8.761,9.289c4.836,0,8.76-4.157,8.76-9.289C226.908,257.984,224.94,254.851,222.081,253.322z"/>
<path opacity="0.8" fill="#E5D66A" d="M206.958,275.578l-4.319,4.316c-0.399,0.403-0.399,1.047,0,1.445
	c0.396,0.395,1.041,0.395,1.439-0.004l4.318-4.317c0.396-0.397,0.396-1.042,0-1.44C207.998,275.184,207.353,275.184,206.958,275.578
	z"/>
<path opacity="0.8" fill="#E5D66A" d="M217.772,277.563c-0.563,0-1.021,0.454-1.021,1.018v6.104c0,0.563,0.457,1.022,1.021,1.022
	c0.562,0,1.017-0.459,1.017-1.022v-6.104C218.789,278.018,218.334,277.563,217.772,277.563z"/>
<g opacity="0.8">
	<path fill="#E5D66A" d="M227.814,275.58c-0.394-0.398-1.041-0.398-1.436,0c-0.398,0.398-0.398,1.042-0.002,1.44l4.319,4.317
		c0.397,0.397,1.042,0.397,1.44,0c0.396-0.395,0.396-1.043,0-1.438L227.814,275.58z"/>
</g>
<g>
	
		<rect x="234.863" y="126.09" opacity="0.8" fill="none" stroke="#3B4A57" stroke-linejoin="round" stroke-miterlimit="10" width="30" height="26"/>
	
		<line fill="none" stroke="#5B6B75" stroke-linejoin="round" stroke-miterlimit="10" x1="235.363" y1="130.09" x2="265.363" y2="130.09"/>
	<circle fill="#5B6B75" cx="238.643" cy="127.913" r="0.685"/>
	<circle opacity="0.8" fill="#549F4A" cx="240.738" cy="127.913" r="0.685"/>
	<circle fill="#5B6B75" cx="242.833" cy="127.913" r="0.685"/>
	
		<rect x="237.863" y="132.09" opacity="0.8" fill="none" stroke="#3B4A57" stroke-linejoin="round" stroke-miterlimit="10" width="10" height="8"/>
	
		<rect x="252.863" y="132.09" opacity="0.8" fill="none" stroke="#3B4A57" stroke-linejoin="round" stroke-miterlimit="10" width="10" height="8"/>
	
		<line opacity="0.8" fill="none" stroke="#549F4A" stroke-linecap="round" stroke-linejoin="round" stroke-miterlimit="10" x1="238.363" y1="143.09" x2="247.363" y2="143.09"/>
	
		<line opacity="0.8" fill="none" stroke="#549F4A" stroke-linecap="round" stroke-linejoin="round" stroke-miterlimit="10" x1="238.363" y1="147.09" x2="247.363" y2="147.09"/>
	
		<line opacity="0.8" fill="none" stroke="#549F4A" stroke-linecap="round" stroke-linejoin="round" stroke-miterlimit="10" x1="252.363" y1="143.09" x2="262.363" y2="143.09"/>
	
		<line opacity="0.8" fill="none" stroke="#549F4A" stroke-linecap="round" stroke-linejoin="round" stroke-miterlimit="10" x1="252.363" y1="147.09" x2="262.363" y2="147.09"/>
</g>
<path fill="none" stroke="#3B4A57" stroke-miterlimit="10" stroke-opacity="0.8" stroke-dasharray="2" d="M182.073,314.91
	c0,0,5.024-4.775,21.907-28.548"/>
<path fill="none" stroke="#3B4A57" stroke-miterlimit="10" stroke-opacity="0.8" stroke-dasharray="2" d="M232.863,236.141
	c0,0,12.08-23.793,15.284-68.049"/>
<path fill="none" stroke="#3B4A57" stroke-miterlimit="10" stroke-opacity="0.8" stroke-dasharray="2" d="M250.147,110.5
	c0,0,2.215-33.416,12.216-54.057"/>
</svg>
