<?xml version="1.0" encoding="utf-8"?>
<!-- Generator: Adobe Illustrator 16.0.0, SVG Export Plug-In . SVG Version: 6.00 Build 0)  -->
<!DOCTYPE svg PUBLIC "-//W3C//DTD SVG 1.1//EN" "http://www.w3.org/Graphics/SVG/1.1/DTD/svg11.dtd">
<svg version="1.1" id="Layer_1" xmlns="http://www.w3.org/2000/svg" xmlns:xlink="http://www.w3.org/1999/xlink" x="0px" y="0px"
	 width="231px" height="368px" viewBox="0 0 231 368" enable-background="new 0 0 231 368" xml:space="preserve">
<rect x="1" opacity="0.6" fill="#3B4A57" width="230" height="368"/>
<circle fill="#9DD6A4" cx="13.32" cy="5.376" r="1.811"/>
<circle fill="#9CB5D3" cx="20.122" cy="5.376" r="1.812"/>
<circle fill="#D39C9C" cx="26.924" cy="5.376" r="1.812"/>
<rect x="1" y="11" fill="#EFEFEF" width="230" height="81"/>
<g opacity="0.8">
	<path fill="#3B4A57" d="M127.135,26.5c0,1.932-3.15,3.5-7,3.5h-8.775c-3.85,0-7-1.568-7-3.5s3.15-3.5,7-3.5h8.775
		C123.984,23,127.135,24.568,127.135,26.5z"/>
</g>
<g>
	<path fill="#D3D3D3" d="M173,49c0,0.552-0.447,1-1,1H60c-0.553,0-1-0.448-1-1v-1c0-0.552,0.447-1,1-1h112c0.553,0,1,0.448,1,1V49z"
		/>
</g>
<g>
	<path fill="#D3D3D3" d="M157,57c0,0.552-0.447,1-1,1H76c-0.553,0-1-0.448-1-1v-1c0-0.552,0.447-1,1-1h80c0.553,0,1,0.448,1,1V57z"
		/>
</g>
<g>
	<path fill="#D3D3D3" d="M106.488,73.003c0,1.054-0.862,1.916-1.916,1.916c-1.053,0-1.915-0.862-1.915-1.916
		s0.862-1.916,1.915-1.916C105.626,71.088,106.488,71.95,106.488,73.003z"/>
</g>
<g>
	<path fill="#D3D3D3" d="M117.344,73.003c0,1.054-0.862,1.916-1.916,1.916s-1.916-0.862-1.916-1.916s0.862-1.916,1.916-1.916
		S117.344,71.95,117.344,73.003z"/>
</g>
<g>
	<path fill="#D3D3D3" d="M127.56,73.003c0,1.054-0.862,1.916-1.915,1.916c-1.054,0-1.916-0.862-1.916-1.916s0.862-1.916,1.916-1.916
		C126.697,71.088,127.56,71.95,127.56,73.003z"/>
</g>
<rect x="1" y="103" fill="#B2CCAE" width="230" height="87"/>
<rect x="1" y="92" fill="#D5DDE2" width="230" height="11"/>
<g>
	<path fill="#ADADAD" d="M36,99c0,0.553-0.448,1-1,1H16c-0.552,0-1-0.447-1-1v-1c0-0.553,0.448-1,1-1h19c0.552,0,1,0.447,1,1V99z"/>
</g>
<g>
	<path fill="#ADADAD" d="M64,99c0,0.553-0.447,1-1,1H44c-0.552,0-1-0.447-1-1v-1c0-0.553,0.448-1,1-1h19c0.553,0,1,0.447,1,1V99z"/>
</g>
<g>
	<path fill="#ADADAD" d="M93,99c0,0.553-0.447,1-1,1H73c-0.553,0-1-0.447-1-1v-1c0-0.553,0.447-1,1-1h19c0.553,0,1,0.447,1,1V99z"/>
</g>
<g>
	<path fill="#ADADAD" d="M195.882,97.906c0,1.053-0.862,1.915-1.916,1.915s-1.916-0.862-1.916-1.915
		c0-1.054,0.862-1.916,1.916-1.916S195.882,96.853,195.882,97.906z"/>
</g>
<g>
	<path fill="#ADADAD" d="M206.736,97.906c0,1.053-0.862,1.915-1.916,1.915s-1.916-0.862-1.916-1.915
		c0-1.054,0.862-1.916,1.916-1.916S206.736,96.853,206.736,97.906z"/>
</g>
<g>
	<path fill="#ADADAD" d="M216.952,97.906c0,1.053-0.861,1.915-1.915,1.915s-1.915-0.862-1.915-1.915
		c0-1.054,0.861-1.916,1.915-1.916S216.952,96.853,216.952,97.906z"/>
</g>
<g>
	<path fill="#E2E2E2" d="M156,114c0,0.553-0.447,1-1,1H85c-0.553,0-1-0.447-1-1l0,0c0-0.553,0.447-1,1-1h70
		C155.553,113,156,113.447,156,114L156,114z"/>
</g>
<rect x="35.5" y="124.5" fill="#E2E2E2" stroke="#BFD6B9" stroke-miterlimit="10" width="160" height="48"/>
<line fill="none" stroke="#BFD6B9" stroke-miterlimit="10" x1="35.08" y1="172.932" x2="195.136" y2="124.404"/>
<line fill="none" stroke="#BFD6B9" stroke-miterlimit="10" x1="35.08" y1="124.404" x2="195.136" y2="172.932"/>
<rect x="1" y="190" fill="#EFEFEF" width="230" height="159"/>
<rect x="35.5" y="215.5" fill="#AAB5BA" stroke="#97A0A5" stroke-miterlimit="10" width="39" height="46"/>
<g>
	<path fill="#CCCCCC" d="M152,199c0,0.553-0.447,1-1,1H81c-0.553,0-1-0.447-1-1l0,0c0-0.553,0.447-1,1-1h70
		C151.553,198,152,198.447,152,199L152,199z"/>
</g>
<line fill="none" stroke="#97A0A5" stroke-miterlimit="10" x1="35.613" y1="215.074" x2="74.243" y2="261.687"/>
<line fill="none" stroke="#97A0A5" stroke-miterlimit="10" x1="74.243" y1="215.074" x2="35.613" y2="261.687"/>
<g>
	<path fill="#BBBBBC" d="M129,223c0,0.553-0.447,1-1,1H89c-0.553,0-1-0.447-1-1l0,0c0-0.553,0.447-1,1-1h39
		C128.553,222,129,222.447,129,223L129,223z"/>
</g>
<g>
	<path fill="#CCCCCC" d="M191,239c0,0.553-0.447,1-1,1H89c-0.553,0-1-0.447-1-1l0,0c0-0.553,0.447-1,1-1h101
		C190.553,238,191,238.447,191,239L191,239z"/>
</g>
<g>
	<path fill="#CCCCCC" d="M191,247c0,0.553-0.447,1-1,1H89c-0.553,0-1-0.447-1-1l0,0c0-0.553,0.447-1,1-1h101
		C190.553,246,191,246.447,191,247L191,247z"/>
</g>
<g>
	<path fill="#CCCCCC" d="M191,255c0,0.553-0.447,1-1,1H89c-0.553,0-1-0.447-1-1l0,0c0-0.553,0.447-1,1-1h101
		C190.553,254,191,254.447,191,255L191,255z"/>
</g>
<rect x="152.5" y="286.5" fill="#AAB5BA" stroke="#97A0A5" stroke-miterlimit="10" width="38" height="46"/>
<line fill="none" stroke="#97A0A5" stroke-miterlimit="10" x1="152.462" y1="285.95" x2="190.454" y2="332.563"/>
<line fill="none" stroke="#97A0A5" stroke-miterlimit="10" x1="190.454" y1="285.95" x2="152.462" y2="332.563"/>
<g>
	<path fill="#BBBBBC" d="M76,294c0,0.553-0.447,1-1,1H36c-0.552,0-1-0.447-1-1l0,0c0-0.553,0.448-1,1-1h39
		C75.553,293,76,293.447,76,294L76,294z"/>
</g>
<g>
	<path fill="#CCCCCC" d="M138,310c0,0.553-0.447,1-1,1H36c-0.552,0-1-0.447-1-1l0,0c0-0.553,0.448-1,1-1h101
		C137.553,309,138,309.447,138,310L138,310z"/>
</g>
<g>
	<path fill="#CCCCCC" d="M138,319c0,0.553-0.447,1-1,1H36c-0.552,0-1-0.447-1-1l0,0c0-0.553,0.448-1,1-1h101
		C137.553,318,138,318.447,138,319L138,319z"/>
</g>
<g>
	<path fill="#CCCCCC" d="M138,326c0,0.553-0.447,1-1,1H36c-0.552,0-1-0.447-1-1l0,0c0-0.553,0.448-1,1-1h101
		C137.553,325,138,325.447,138,326L138,326z"/>
</g>
<g>
	<path fill="#ADADAD" d="M107.127,358.422c0,1.054-0.862,1.916-1.916,1.916c-1.053,0-1.915-0.862-1.915-1.916
		c0-1.053,0.862-1.915,1.915-1.915C106.265,356.507,107.127,357.369,107.127,358.422z"/>
</g>
<g>
	<path fill="#ADADAD" d="M117.982,358.422c0,1.054-0.862,1.916-1.916,1.916s-1.916-0.862-1.916-1.916
		c0-1.053,0.862-1.915,1.916-1.915S117.982,357.369,117.982,358.422z"/>
</g>
<g>
	<path fill="#ADADAD" d="M128.198,358.422c0,1.054-0.862,1.916-1.915,1.916c-1.054,0-1.916-0.862-1.916-1.916
		c0-1.053,0.862-1.915,1.916-1.915C127.336,356.507,128.198,357.369,128.198,358.422z"/>
</g>
</svg>
