<?xml version="1.0" encoding="utf-8"?>
<!-- Generator: Adobe Illustrator 16.0.0, SVG Export Plug-In . SVG Version: 6.00 Build 0)  -->
<!DOCTYPE svg PUBLIC "-//W3C//DTD SVG 1.1//EN" "http://www.w3.org/Graphics/SVG/1.1/DTD/svg11.dtd">
<svg version="1.1" id="Layer_1" xmlns="http://www.w3.org/2000/svg" xmlns:xlink="http://www.w3.org/1999/xlink" x="0px" y="0px"
	 width="256.189px" height="324.916px" viewBox="0 0 256.189 324.916" enable-background="new 0 0 256.189 324.916"
	 xml:space="preserve">
<polygon opacity="0.6" fill="#3B4A57" enable-background="new    " points="51.043,44.14 189.502,37.979 121.95,321.162 0,258.114 
	"/>
<path fill="#9DD6A4" d="M56.221,45.988c0.468-0.019,0.732,0.444,0.591,1.035c-0.141,0.59-0.633,1.082-1.1,1.099
	c-0.466,0.017-0.729-0.447-0.589-1.035C55.265,46.498,55.755,46.006,56.221,45.988z"/>
<path fill="#9CB5D3" d="M59.418,45.86c0.474-0.019,0.744,0.448,0.602,1.043s-0.642,1.091-1.115,1.107s-0.74-0.451-0.6-1.043
	C58.447,46.375,58.945,45.878,59.418,45.86z"/>
<path fill="#D39C9C" d="M62.662,45.731c0.48-0.019,0.757,0.451,0.613,1.05c-0.144,0.6-0.65,1.1-1.13,1.116s-0.753-0.454-0.61-1.051
	C61.678,46.25,62.181,45.75,62.662,45.731z"/>
<polygon fill="#EFEFEF" points="49.518,50.535 187.483,46.443 172.616,108.775 38.283,97.632 "/>
<g opacity="0.8">
	<path fill="#3B4A57" d="M113.054,58.985c-0.31,1.298-2.446,2.356-4.729,2.366l-5.128,0.02c-2.215,0.008-3.77-1.01-3.467-2.271
		c0.301-1.262,2.349-2.31,4.566-2.34l5.14-0.068C111.726,56.661,113.365,57.688,113.054,58.985z"/>
</g>
<g>
	<path fill="#D3D3D3" d="M138.462,74.744c-0.093,0.392-0.47,0.704-0.84,0.694l-65.346-1.556c-0.281-0.006-0.441-0.289-0.359-0.631
		l0.146-0.619c0.081-0.342,0.375-0.615,0.657-0.611l65.409,1.286c0.371,0.008,0.598,0.332,0.502,0.725L138.462,74.744z"/>
</g>
<g>
	<path fill="#D3D3D3" d="M126.627,80.083c-0.093,0.385-0.454,0.687-0.808,0.675l-46.448-1.624c-0.291-0.009-0.458-0.3-0.376-0.648
		l0.151-0.632c0.083-0.348,0.386-0.624,0.677-0.615l46.493,1.431c0.355,0.012,0.568,0.332,0.476,0.717L126.627,80.083z"/>
</g>
<g>
	<path fill="#D3D3D3" d="M93.679,89.542c-0.163,0.689-0.783,1.226-1.375,1.191c-0.588-0.035-0.936-0.625-0.771-1.312
		c0.163-0.688,0.78-1.225,1.369-1.192C93.494,88.262,93.845,88.852,93.679,89.542z"/>
</g>
<g>
	<path fill="#D3D3D3" d="M99.876,89.888c-0.167,0.699-0.8,1.242-1.407,1.207c-0.606-0.035-0.965-0.634-0.799-1.33
		c0.167-0.696,0.797-1.239,1.403-1.207C99.682,88.591,100.042,89.19,99.876,89.888z"/>
</g>
<g>
	<path fill="#D3D3D3" d="M105.858,90.224c-0.17,0.707-0.818,1.257-1.438,1.22c-0.623-0.036-0.99-0.644-0.821-1.347
		c0.168-0.705,0.812-1.254,1.434-1.221C105.653,88.91,106.028,89.515,105.858,90.224z"/>
</g>
<polygon fill="#B2CCAE" points="36.757,104.029 170.596,117.239 154.625,184.187 24.69,154.616 "/>
<polygon fill="#D5DDE2" points="38.283,97.632 172.616,108.775 170.596,117.239 36.757,104.029 "/>
<g>
	<path fill="#ADADAD" d="M53.318,103.191c-0.079,0.333-0.357,0.585-0.618,0.56l-8.817-0.833c-0.25-0.022-0.391-0.307-0.313-0.633
		l0.141-0.589c0.078-0.328,0.344-0.573,0.595-0.551l8.827,0.796c0.261,0.022,0.409,0.313,0.329,0.646L53.318,103.191z"/>
</g>
<g>
	<path fill="#ADADAD" d="M67.039,104.467c-0.08,0.344-0.373,0.601-0.652,0.575l-9.381-0.886c-0.266-0.025-0.418-0.318-0.338-0.653
		l0.145-0.609c0.081-0.337,0.362-0.59,0.629-0.564l9.391,0.845c0.28,0.026,0.439,0.324,0.356,0.669L67.039,104.467z"/>
</g>
<g>
	<path fill="#ADADAD" d="M82.207,105.876c-0.085,0.356-0.395,0.621-0.694,0.594l-10.024-0.946c-0.284-0.026-0.447-0.33-0.364-0.678
		l0.15-0.628c0.082-0.349,0.38-0.609,0.665-0.583l10.034,0.903c0.3,0.027,0.472,0.337,0.388,0.693L82.207,105.876z"/>
</g>
<g>
	<path fill="#ADADAD" d="M145.714,110.96c-0.185,0.771-0.938,1.347-1.672,1.277c-0.734-0.068-1.182-0.753-0.997-1.521
		c0.182-0.77,0.931-1.346,1.664-1.28C145.445,109.5,145.899,110.188,145.714,110.96z"/>
</g>
<g>
	<path fill="#ADADAD" d="M153.431,111.666c-0.187,0.783-0.961,1.367-1.719,1.295c-0.754-0.071-1.218-0.768-1.031-1.546
		c0.186-0.78,0.955-1.363,1.711-1.296C153.148,110.185,153.617,110.881,153.431,111.666z"/>
</g>
<g>
	<path fill="#ADADAD" d="M160.904,112.348c-0.189,0.795-0.981,1.385-1.76,1.312c-0.777-0.072-1.257-0.778-1.067-1.569
		c0.19-0.791,0.977-1.383,1.756-1.313C160.61,110.846,161.092,111.553,160.904,112.348z"/>
</g>
<g>
	<path fill="#E2E2E2" d="M116.52,119.739c-0.093,0.386-0.444,0.664-0.793,0.625l-40.243-4.671c-0.292-0.033-0.46-0.346-0.376-0.698
		l0,0c0.085-0.353,0.388-0.611,0.681-0.578l40.271,4.556C116.406,119.011,116.612,119.354,116.52,119.739L116.52,119.739z"/>
</g>
<polygon fill="#E2E2E2" stroke="#BFD6B9" stroke-miterlimit="10" points="49.408,118.56 140.798,130.427 132.406,165.607 
	42.498,147.532 "/>
<line fill="none" stroke="#BFD6B9" stroke-miterlimit="10" x1="42.242" y1="147.753" x2="140.563" y2="130.324"/>
<line fill="none" stroke="#BFD6B9" stroke-miterlimit="10" x1="49.225" y1="118.476" x2="132.082" y2="165.875"/>
<polygon fill="#EFEFEF" points="24.69,154.616 154.625,184.187 125.439,306.541 2.636,247.064 "/>
<polygon fill="#AAB5BA" stroke="#97A0A5" stroke-miterlimit="10" points="36.306,173.486 54.887,178.443 47.966,207.455 
	29.683,201.25 "/>
<g>
	<path fill="#CCCCCC" d="M99.978,178.322c-0.091,0.383-0.434,0.627-0.768,0.546l-38.713-9.403c-0.282-0.067-0.44-0.407-0.356-0.758
		l0,0c0.083-0.352,0.377-0.581,0.658-0.514l38.743,9.291C99.876,177.565,100.071,177.94,99.978,178.322L99.978,178.322z"/>
</g>
<line fill="none" stroke="#97A0A5" stroke-miterlimit="10" x1="36.42" y1="173.243" x2="47.812" y2="207.532"/>
<line fill="none" stroke="#97A0A5" stroke-miterlimit="10" x1="54.823" y1="178.142" x2="29.707" y2="201.38"/>
<g>
	<path fill="#BBBBBC" d="M82.633,191.216c-0.089,0.37-0.414,0.602-0.725,0.515l-20.981-5.877c-0.284-0.08-0.445-0.429-0.36-0.782
		l0,0c0.085-0.355,0.382-0.579,0.666-0.5l20.996,5.813C82.542,190.473,82.721,190.843,82.633,191.216L82.633,191.216z"/>
</g>
<g>
	<path fill="#CCCCCC" d="M117.795,213.441c-0.096,0.403-0.467,0.64-0.83,0.528l-58.487-17.853c-0.28-0.084-0.441-0.441-0.357-0.795
		l0,0c0.084-0.354,0.383-0.572,0.664-0.487l58.527,17.68C117.677,212.623,117.891,213.039,117.795,213.441L117.795,213.441z"/>
</g>
<g>
	<path fill="#CCCCCC" d="M116.405,219.269c-0.097,0.403-0.468,0.635-0.829,0.521L57.254,201.25c-0.28-0.09-0.439-0.448-0.354-0.802
		l0,0c0.084-0.355,0.379-0.569,0.66-0.481l58.364,18.368C116.286,218.45,116.5,218.866,116.405,219.269L116.405,219.269z"/>
</g>
<g>
	<path fill="#CCCCCC" d="M115.017,225.097c-0.098,0.404-0.469,0.633-0.829,0.513l-58.156-19.229
		c-0.282-0.095-0.439-0.457-0.355-0.81l0,0c0.084-0.354,0.38-0.566,0.66-0.475l58.199,19.059
		C114.898,224.274,115.111,224.695,115.017,225.097L115.017,225.097z"/>
</g>
<polygon fill="#AAB5BA" stroke="#97A0A5" stroke-miterlimit="10" points="85.816,239.033 109.216,247.924 101.228,281.415 
	78.211,270.912 "/>
<line fill="none" stroke="#97A0A5" stroke-miterlimit="10" x1="85.884" y1="238.644" x2="101.187" y2="281.446"/>
<line fill="none" stroke="#97A0A5" stroke-miterlimit="10" x1="109.284" y1="247.512" x2="78.179" y2="270.945"/>
<g>
	<path fill="#BBBBBC" d="M43.803,228.24c-0.082,0.348-0.367,0.547-0.635,0.441l-18.086-7.125c-0.245-0.094-0.378-0.444-0.3-0.776
		l0,0c0.08-0.334,0.343-0.524,0.588-0.431l18.101,7.069C43.737,227.523,43.888,227.89,43.803,228.24L43.803,228.24z"/>
</g>
<g>
	<path fill="#CCCCCC" d="M73.654,251.855c-0.089,0.374-0.412,0.574-0.721,0.445l-50.157-21.08c-0.243-0.102-0.376-0.455-0.296-0.788
		l0,0c0.08-0.335,0.341-0.521,0.585-0.42l50.192,20.929C73.567,251.07,73.744,251.478,73.654,251.855L73.654,251.855z"/>
</g>
<g>
	<path fill="#CCCCCC" d="M72.194,257.979c-0.091,0.377-0.411,0.571-0.72,0.438L21.48,236.655c-0.242-0.104-0.375-0.46-0.296-0.794
		l0,0c0.079-0.333,0.34-0.519,0.583-0.414l50.03,21.611C72.107,257.19,72.284,257.603,72.194,257.979L72.194,257.979z"/>
</g>
<g>
	<path fill="#CCCCCC" d="M71.056,262.743c-0.089,0.376-0.41,0.57-0.717,0.433l-49.867-22.292c-0.243-0.111-0.375-0.466-0.295-0.8
		l0,0c0.081-0.335,0.34-0.517,0.583-0.409l49.902,22.14C70.97,261.952,71.146,262.367,71.056,262.743L71.056,262.743z"/>
</g>
<g>
	<path fill="#ADADAD" d="M49.421,276.612c-0.166,0.691-0.74,1.034-1.276,0.763c-0.533-0.268-0.836-1.05-0.672-1.736
		c0.164-0.688,0.736-1.032,1.27-0.769C49.28,275.137,49.585,275.922,49.421,276.612z"/>
</g>
<g>
	<path fill="#ADADAD" d="M55.038,279.424c-0.166,0.698-0.755,1.043-1.304,0.768c-0.55-0.279-0.863-1.072-0.696-1.771
		c0.167-0.694,0.75-1.042,1.301-0.769C54.889,277.927,55.205,278.724,55.038,279.424z"/>
</g>
<g>
	<path fill="#ADADAD" d="M60.46,282.136c-0.168,0.71-0.77,1.057-1.333,0.771c-0.563-0.284-0.885-1.091-0.717-1.796
		c0.169-0.704,0.766-1.054,1.33-0.774C60.305,280.62,60.628,281.429,60.46,282.136z"/>
</g>
<polygon opacity="0.5" fill="#FFDD88" points="162.654,304.916 156.654,304.916 156.654,295.447 158.033,295.881 162.654,300.472 
	"/>
<polygon opacity="0.5" fill="#00C2CC" points="163.945,288.16 157.484,294.922 162.085,299.526 166.618,294.781 166.713,290.928 "/>
<polygon opacity="0.5" fill="#FFC107" points="162.668,300.561 162.833,305.112 166.713,304.989 165.238,303.13 "/>
<rect x="150.654" y="294.916" opacity="0.5" fill="#FFEDC0" width="6" height="10"/>
<polygon opacity="0.5" fill="#B8D8B2" points="176.679,289.916 167.014,289.916 166.976,283.916 176.641,283.916 "/>
<rect x="166.654" y="289.916" opacity="0.5" fill="#83B779" width="11" height="7"/>
<rect x="166.654" y="296.916" opacity="0.5" fill="#549F4A" width="11" height="8"/>
<polygon opacity="0.5" fill="#0097A7" points="166.618,294.781 162.085,299.526 166.689,304.127 166.713,301.66 "/>
<polygon opacity="0.5" fill="#00E7F2" points="159.234,283.485 152.707,290.011 157.484,294.922 163.945,288.16 "/>
<g opacity="0.8">
	<g>
		<g>
			<g>
				
					<path fill="none" stroke="#3B4A57" stroke-width="1.4" stroke-linecap="round" stroke-linejoin="round" stroke-miterlimit="10" d="
					M183.501,18.317l13.326,1.404c0.216-0.06,0.388-0.312,0.352-0.508l-6.084-11.94c-0.021-0.123-0.514-0.5-0.622-0.547
					c-0.08-0.084-8.547-2.093-8.547-2.093c-0.195,0.038-4.171,5.819-4.136,6.016c0,0,4.869,7.238,4.979,7.285
					C182.849,18.016,183.38,18.339,183.501,18.317z"/>
			</g>
			<g>
				<g>
					
						<line fill="none" stroke="#3B4A57" stroke-width="1.4" stroke-linecap="round" stroke-linejoin="round" stroke-miterlimit="10" x1="172.221" y1="7.211" x2="177.791" y2="10.648"/>
				</g>
				<g>
					
						<line fill="none" stroke="#3B4A57" stroke-width="1.4" stroke-linecap="round" stroke-linejoin="round" stroke-miterlimit="10" x1="181.926" y1="4.632" x2="176.72" y2="0.7"/>
				</g>
			</g>
			<g>
				
					<ellipse transform="matrix(-0.5673 0.8235 -0.8235 -0.5673 298.0327 -135.0208)" fill="none" stroke="#3B4A57" stroke-width="1.4" stroke-linecap="round" stroke-linejoin="round" stroke-miterlimit="10" cx="184.488" cy="10.786" rx="0.871" ry="1.061"/>
			</g>
		</g>
	</g>
	
		<line fill="none" stroke="#3B4A57" stroke-width="1.4" stroke-linecap="round" stroke-linejoin="round" stroke-miterlimit="10" x1="197.073" y1="19.439" x2="185.372" y2="11.369"/>
</g>
<line opacity="0.8" fill="none" stroke="#3B4A57" stroke-linecap="round" stroke-linejoin="round" stroke-miterlimit="10" x1="206.436" y1="13.445" x2="194.968" y2="30.465"/>
<rect x="205.922" y="11.318" transform="matrix(0.5587 -0.8294 0.8294 0.5587 81.0412 177.2624)" opacity="0.8" fill="none" stroke="#3B4A57" stroke-linecap="round" stroke-linejoin="round" stroke-miterlimit="10" width="2.325" height="2.326"/>
<rect x="193.157" y="30.267" transform="matrix(0.5587 -0.8294 0.8294 0.5587 59.6916 175.0378)" opacity="0.8" fill="none" stroke="#3B4A57" stroke-linecap="round" stroke-linejoin="round" stroke-miterlimit="10" width="2.325" height="2.325"/>
<path fill="#3B4A57" d="M201.414,21.817c0.077,0.394-0.18,0.774-0.573,0.851s-0.774-0.18-0.85-0.573
	c-0.078-0.393,0.178-0.775,0.573-0.852C200.957,21.167,201.337,21.424,201.414,21.817"/>
<circle opacity="0.8" fill="none" stroke="#3B4A57" stroke-linecap="round" stroke-linejoin="round" stroke-miterlimit="10" cx="200.702" cy="21.956" r="0.725"/>
<g opacity="0.8">
	<path fill="none" stroke="#3B4A57" stroke-width="2" stroke-linecap="round" stroke-linejoin="round" stroke-miterlimit="10" d="
		M237.045,82.363v-5.274h-6.977v5.274c-2.538,1.279-4.281,3.899-4.281,6.934c0,4.293,3.479,7.771,7.77,7.771
		c4.292,0,7.771-3.479,7.771-7.771C241.329,86.262,239.582,83.642,237.045,82.363z"/>
</g>
<line opacity="0.8" fill="none" stroke="#3B4A57" stroke-width="2" stroke-linecap="round" stroke-linejoin="round" stroke-miterlimit="10" x1="230.654" y1="75.916" x2="237.654" y2="75.916"/>
<line opacity="0.8" fill="none" stroke="#3B4A57" stroke-width="2" stroke-linecap="round" stroke-linejoin="round" stroke-miterlimit="10" x1="230.654" y1="73.916" x2="237.654" y2="73.916"/>
<path opacity="0.4" fill="#E5D66A" d="M236.645,82.865v-4.713h-6.234v4.713c-2.269,1.143-3.826,3.484-3.826,6.195
	c0,3.838,3.108,6.945,6.943,6.945c3.834,0,6.942-3.107,6.942-6.945C240.47,86.349,238.912,84.007,236.645,82.865z"/>
<g opacity="0.8">
	
		<circle fill="none" stroke="#3B4A57" stroke-linecap="round" stroke-linejoin="round" stroke-dasharray="1.9818,1.9818" cx="233.604" cy="88.459" r="22.085"/>
</g>
<path opacity="0.8" fill="#E5D66A" d="M225.845,99.003l-3.098,3.097c-0.287,0.289-0.287,0.751,0,1.036
	c0.283,0.283,0.746,0.283,1.032-0.003l3.098-3.098c0.286-0.284,0.286-0.748,0-1.032C226.592,98.72,226.128,98.72,225.845,99.003z"/>
<path opacity="0.8" fill="#E5D66A" d="M233.606,100.427c-0.405,0-0.732,0.326-0.732,0.729v4.38c0,0.404,0.327,0.733,0.732,0.733
	c0.401,0,0.728-0.329,0.728-0.733v-4.38C234.333,100.753,234.007,100.427,233.606,100.427z"/>
<g opacity="0.8">
	<path fill="#E5D66A" d="M240.811,99.004c-0.282-0.286-0.748-0.286-1.03,0c-0.286,0.285-0.286,0.748-0.002,1.033l3.1,3.098
		c0.285,0.286,0.747,0.286,1.033,0c0.284-0.283,0.284-0.748,0-1.03L240.811,99.004z"/>
</g>
<path fill="none" stroke="#566875" stroke-width="2" stroke-linecap="round" stroke-linejoin="round" stroke-miterlimit="10" d="
	M157.419,295.31h-5.909c-0.776,0-1.413,0.638-1.413,1.414v7.234c0,0.777,0.637,1.414,1.413,1.414h20.389"/>
<path fill="none" stroke="#566875" stroke-width="2" stroke-linecap="round" stroke-linejoin="round" stroke-miterlimit="10" d="
	M166.712,290.375l-6.479-6.479c-0.549-0.549-1.448-0.549-1.999,0l-5.115,5.115c-0.55,0.551-0.55,1.45,0,1.999l13.978,13.979"/>
<path fill="none" stroke="#566875" stroke-width="2" stroke-linecap="round" stroke-linejoin="round" stroke-miterlimit="10" d="
	M175.36,305.373c0.778,0,1.414-0.637,1.414-1.414v-19.703c0-0.778-0.636-1.414-1.414-1.414h-7.232c-0.778,0-1.414,0.636-1.414,1.414
	v19.703c0,0.777,0.636,1.414,1.414,1.414H175.36z"/>
<path d="M170.424,302.669c0,0.474-0.384,0.857-0.858,0.857c-0.472,0-0.856-0.384-0.856-0.857c0-0.472,0.385-0.855,0.856-0.855
	C170.041,301.814,170.424,302.198,170.424,302.669"/>
<g opacity="0.8">
	
		<circle fill="none" stroke="#3B4A57" stroke-linecap="round" stroke-linejoin="round" stroke-dasharray="1.9856,1.9856" cx="164.295" cy="294.112" r="23.392"/>
</g>
<g>
	<rect x="189.059" y="164.435" fill="#FFFFFF" width="20.545" height="2.833"/>
	
		<rect x="188.654" y="165.916" opacity="0.8" fill="none" stroke="#3B4A57" stroke-width="2" stroke-linejoin="round" stroke-miterlimit="10" width="20" height="16"/>
	
		<line fill="none" stroke="#5B6B75" stroke-width="2" stroke-linejoin="round" stroke-miterlimit="10" x1="188.654" y1="166.916" x2="208.654" y2="166.916"/>
	<circle fill="#5B6B75" cx="191.02" cy="165.875" r="0.463"/>
	<circle opacity="0.8" fill="#549F4A" cx="192.436" cy="165.875" r="0.463"/>
	<circle fill="#5B6B75" cx="193.853" cy="165.875" r="0.463"/>
	
		<rect x="190.654" y="168.916" opacity="0.8" fill="none" stroke="#3B4A57" stroke-width="2" stroke-linejoin="round" stroke-miterlimit="10" width="7" height="5"/>
	
		<rect x="200.654" y="168.916" opacity="0.8" fill="none" stroke="#3B4A57" stroke-width="2" stroke-linejoin="round" stroke-miterlimit="10" width="7" height="5"/>
	
		<line opacity="0.8" fill="none" stroke="#549F4A" stroke-width="2" stroke-linecap="round" stroke-linejoin="round" stroke-miterlimit="10" x1="190.654" y1="175.916" x2="197.654" y2="175.916"/>
	
		<line opacity="0.8" fill="none" stroke="#549F4A" stroke-width="2" stroke-linecap="round" stroke-linejoin="round" stroke-miterlimit="10" x1="190.654" y1="179.916" x2="197.654" y2="179.916"/>
	
		<line opacity="0.8" fill="none" stroke="#549F4A" stroke-width="2" stroke-linecap="round" stroke-linejoin="round" stroke-miterlimit="10" x1="201.654" y1="175.916" x2="207.654" y2="175.916"/>
	
		<line opacity="0.8" fill="none" stroke="#549F4A" stroke-width="2" stroke-linecap="round" stroke-linejoin="round" stroke-miterlimit="10" x1="201.654" y1="179.916" x2="207.654" y2="179.916"/>
	<g>
		<path fill="#F5F7F7" d="M219.688,179.338l-2.77-2.771c-0.042-0.04-0.088-0.075-0.136-0.11c1.474-2.352,1.193-5.496-0.851-7.539
			c-1.151-1.151-2.681-1.785-4.309-1.785c-1.627,0-3.156,0.634-4.307,1.785c-1.15,1.148-1.782,2.68-1.782,4.307
			c0,1.631,0.632,3.16,1.782,4.31c1.15,1.151,2.68,1.784,4.307,1.784c1.234,0,2.412-0.366,3.41-1.044
			c0.027,0.031,0.051,0.065,0.081,0.097l2.771,2.772c0.241,0.24,0.56,0.373,0.902,0.373c0.339,0,0.66-0.133,0.899-0.373
			c0.243-0.241,0.374-0.563,0.374-0.902C220.062,179.9,219.931,179.58,219.688,179.338z M211.624,176.767
			c-0.945,0-1.834-0.369-2.504-1.038c-1.382-1.381-1.382-3.628,0-5.009c0.67-0.669,1.559-1.037,2.504-1.037
			c0.947,0,1.836,0.368,2.505,1.037c1.381,1.381,1.381,3.628,0,5.009C213.459,176.398,212.571,176.767,211.624,176.767z"/>
		<g>
			<path opacity="0.8" fill="#549F4A" d="M211.624,178.468c-1.399,0-2.716-0.546-3.706-1.536c-2.044-2.044-2.044-5.369,0-7.414
				c0.99-0.99,2.307-1.536,3.706-1.536c1.4,0,2.718,0.546,3.708,1.536c2.044,2.045,2.044,5.37,0,7.414
				C214.341,177.922,213.024,178.468,211.624,178.468z M211.624,168.833c-1.173,0-2.275,0.457-3.105,1.286
				c-1.712,1.713-1.712,4.5,0,6.212c0.83,0.829,1.933,1.287,3.105,1.287c1.174,0,2.277-0.458,3.106-1.287
				c1.713-1.712,1.713-4.499,0-6.212C213.901,169.29,212.797,168.833,211.624,168.833z"/>
			<path fill="#5B6B75" d="M218.504,180.382c-0.11,0-0.218-0.041-0.302-0.125L216,178.052c-0.167-0.165-0.167-0.434,0-0.6
				c0.166-0.166,0.435-0.166,0.601,0l2.204,2.203c0.166,0.167,0.166,0.436,0,0.602C218.722,180.341,218.613,180.382,218.504,180.382
				z"/>
		</g>
	</g>
</g>
<g opacity="0.8">
	
		<circle fill="none" stroke="#3B4A57" stroke-linecap="round" stroke-linejoin="round" stroke-dasharray="1.9998,1.9998" cx="200.636" cy="173.599" r="19.738"/>
</g>
<path fill="none" stroke="#3B4A57" stroke-miterlimit="10" d="M150.902,324.916"/>
<path fill="none" stroke="#3B4A57" stroke-miterlimit="10" d="M191.14,27.451"/>
<path fill="none" stroke="#3B4A57" stroke-miterlimit="10" stroke-dasharray="2,2" d="M204.112,24.333
	c0,0,16.199,9.989,25.935,42.33"/>
<path fill="none" stroke="#3B4A57" stroke-miterlimit="10" stroke-dasharray="2,2" d="M233.604,110.544
	c0,0-3.766,27.047-21.98,46.657"/>
<path fill="none" stroke="#3B4A57" stroke-miterlimit="10" stroke-dasharray="2,2" d="M185.658,186.447
	c0,0-25.186,28.969-23.103,84.344"/>
</svg>
